<?xml version="1.0" encoding="UTF-8" standalone="no"?>
<!DOCTYPE svg PUBLIC "-//W3C//DTD SVG 1.1//EN" "http://www.w3.org/Graphics/SVG/1.1/DTD/svg11.dtd">
<svg xmlns="http://www.w3.org/2000/svg" version="1.1" viewBox="0.00 0.00 1024.00 1024.00">
<g stroke-width="2.00" fill="none" stroke-linecap="butt">
<path stroke="#83674d" vector-effect="non-scaling-stroke" d="
  M 253.19 403.73
  C 242.07 430.27 235.15 457.95 232.43 486.77"
/>
<path stroke="#825442" vector-effect="non-scaling-stroke" d="
  M 232.43 486.77
  C 227.80 531.72 236.15 580.21 255.20 621.45
  C 255.35 621.76 255.59 621.92 255.94 621.92
  C 274.15 622.18 292.92 621.80 310.50 621.78
  C 406.75 621.69 503.00 621.92 599.25 621.71
  C 626.15 621.65 649.90 633.94 666.74 654.83"
/>
<path stroke="#663837" vector-effect="non-scaling-stroke" d="
  M 666.74 654.83
  C 674.97 664.86 680.74 676.07 684.05 688.44
  C 686.63 698.08 686.74 709.05 686.39 719.23
  C 686.36 720.10 686.68 720.26 687.35 719.71
  C 717.22 695.04 740.78 665.32 758.03 630.53"
/>
<path stroke="#7f4c3d" vector-effect="non-scaling-stroke" d="
  M 758.03 630.53
  C 769.60 606.56 777.51 581.06 781.78 554.05
  C 782.29 550.80 782.63 548.22 782.80 546.31
  C 782.83 545.96 782.56 545.66 782.21 545.65
  L 763.08 545.44
  C 762.74 545.43 762.54 545.60 762.49 545.93
  C 758.71 569.80 752.03 592.80 742.45 614.92"
/>
<path stroke="#663837" vector-effect="non-scaling-stroke" d="
  M 742.45 614.92
  C 737.03 627.63 730.42 639.62 722.62 650.89
  C 714.06 663.27 705.76 674.28 695.14 684.11
  C 694.91 684.33 694.52 684.23 694.42 683.93
  C 689.68 670.37 682.85 658.14 673.93 647.25"
/>
<path stroke="#825442" vector-effect="non-scaling-stroke" d="
  M 673.93 647.25
  C 650.16 619.44 620.90 608.98 584.75 608.84
  C 481.67 608.43 378.59 608.37 275.50 608.65
  C 274.67 608.65 274.00 608.66 273.50 608.69
  C 273.13 608.71 272.79 608.51 272.64 608.18
  C 256.16 572.78 250.46 531.14 253.45 492.56"
/>
<path stroke="#83674d" vector-effect="non-scaling-stroke" d="
  M 253.45 492.56
  C 256.64 453.22 267.93 416.54 287.31 382.53"
/>
<path stroke="#837e63" vector-effect="non-scaling-stroke" d="
  M 287.31 382.53
  C 317.57 331.65 362.16 293.24 417.33 272.81
  C 539.67 227.50 670.67 275.40 734.18 389.74"
/>
<path stroke="#83674d" vector-effect="non-scaling-stroke" d="
  M 734.18 389.74
  C 749.15 418.51 758.81 449.07 763.16 481.44
  C 763.21 481.81 763.42 482.00 763.80 482.00
  L 783.16 482.00
  C 783.53 482.00 783.83 481.68 783.79 481.31
  C 780.41 449.42 771.76 419.06 757.84 390.24"
/>
<path stroke="#837e63" vector-effect="non-scaling-stroke" d="
  M 757.84 390.24
  C 733.50 340.07 693.09 298.34 644.97 270.62
  C 547.54 214.50 426.62 225.86 338.14 293.35
  C 321.99 305.67 307.32 320.87 294.23 336.36
  C 286.81 345.14 279.80 356.01 272.66 365.92
  C 270.44 369.01 268.89 373.52 266.30 377.36
  C 263.69 381.21 261.83 385.89 259.84 389.47
  C 257.29 394.06 255.08 398.81 253.19 403.73"
/>
<path stroke="#ffcc88" vector-effect="non-scaling-stroke" d="
  M 757.84 390.24
  L 756.60 390.66
  C 756.31 390.76 756.03 390.73 755.77 390.58
  L 745.17 384.21
  C 744.86 384.02 744.52 383.95 744.15 383.99
  C 743.31 384.08 742.54 384.39 741.83 384.90
  C 741.53 385.11 741.20 385.24 740.83 385.28
  L 734.60 386.02
  C 734.45 386.03 734.35 385.97 734.29 385.84
  C 734.22 385.67 734.17 385.49 734.14 385.30
  C 734.13 385.21 734.05 385.15 733.96 385.16
  C 733.88 385.18 733.81 385.25 733.82 385.34
  L 734.18 389.74"
/>
<path stroke="#ffcc88" vector-effect="non-scaling-stroke" d="
  M 287.31 382.53
  C 286.32 381.80 286.14 381.14 286.76 380.55
  C 287.50 379.85 286.75 378.63 285.79 378.98
  C 284.50 379.46 283.56 380.32 282.97 381.55
  C 282.82 381.87 282.58 382.13 282.27 382.30
  L 279.79 383.69
  C 279.72 383.73 279.71 383.78 279.78 383.83
  L 279.98 384.01
  C 280.12 384.13 280.11 384.24 279.96 384.34
  C 278.90 385.01 277.87 385.73 276.87 386.49
  C 274.18 388.53 270.56 389.34 267.59 391.22
  C 267.28 391.42 267.05 391.69 266.92 392.04
  C 266.51 393.11 265.66 393.56 264.39 393.39
  C 264.27 393.37 264.20 393.52 264.29 393.60
  L 264.59 393.86
  C 264.67 393.92 264.67 393.98 264.58 394.03
  L 259.31 397.32
  C 259.04 397.49 258.81 397.71 258.64 397.98
  C 258.19 398.65 257.59 399.21 256.86 399.65
  C 256.62 399.80 256.46 400.03 256.41 400.30
  C 256.09 402.07 255.02 403.22 253.19 403.73"
/>
<path stroke="#ffa266" vector-effect="non-scaling-stroke" d="
  M 253.45 492.56
  L 252.64 488.29
  C 252.59 488.03 252.45 487.78 252.24 487.61
  L 247.85 483.99
  C 247.53 483.72 247.17 483.64 246.76 483.75
  L 244.87 484.25
  C 244.52 484.34 244.17 484.31 243.84 484.14
  C 241.52 482.98 239.14 482.82 236.70 483.66
  C 236.31 483.79 236.21 484.04 236.40 484.40
  L 237.07 485.71
  C 237.18 485.92 237.12 486.05 236.89 486.10
  L 233.14 486.92
  C 232.99 486.95 232.86 486.93 232.73 486.86
  C 232.64 486.81 232.54 486.78 232.43 486.77"
/>
<path stroke="#e27351" vector-effect="non-scaling-stroke" d="
  M 673.93 647.25
  C 673.76 647.73 673.48 648.04 673.07 648.19
  C 672.76 648.30 672.38 648.26 671.94 648.05
  C 671.16 647.68 670.44 647.22 669.79 646.65
  C 669.44 646.36 669.06 646.29 668.64 646.46
  L 665.33 647.77
  C 664.83 647.97 664.61 648.55 664.86 649.02
  L 667.00 653.20
  C 667.12 653.43 667.14 653.67 667.05 653.92
  L 666.74 654.83"
/>
<path stroke="#df6b4c" vector-effect="non-scaling-stroke" d="
  M 758.03 630.53
  C 757.80 630.52 757.64 630.49 757.55 630.42
  C 757.47 630.36 757.49 630.25 757.61 630.08
  C 757.70 629.95 757.80 629.83 757.91 629.71
  C 757.96 629.65 757.96 629.57 757.91 629.51
  C 757.86 629.46 757.78 629.45 757.72 629.49
  L 757.27 629.82
  C 757.13 629.92 756.93 629.91 756.82 629.78
  C 755.80 628.64 754.40 627.84 753.77 626.46
  C 752.12 622.88 750.57 614.36 744.87 616.62
  C 744.46 616.78 744.11 616.26 744.43 615.95
  L 744.81 615.56
  C 745.04 615.33 745.00 615.23 744.67 615.27
  C 743.88 615.38 743.14 615.26 742.45 614.92"
/>
<path stroke="#4b7c88" vector-effect="non-scaling-stroke" d="
  M 414.42 293.03
  L 606.29 293.00
  C 606.42 293.00 606.42 292.97 606.30 292.92
  C 589.14 285.65 571.05 279.64 552.69 276.37
  C 504.94 267.84 458.81 273.19 414.29 292.40
  C 413.31 292.82 413.35 293.03 414.42 293.03"
/>
<path stroke="#365a69" vector-effect="non-scaling-stroke" d="
  M 521.13 330.81
  C 524.88 333.22 526.73 336.06 526.68 339.33
  C 526.54 347.46 520.21 348.00 513.29 348.00
  C 453.88 348.00 394.65 348.00 335.59 348.00
  C 334.96 348.00 334.37 348.27 333.96 348.74
  L 318.34 366.58
  C 318.08 366.88 318.15 367.03 318.55 367.04
  L 529.26 367.23"
/>
<path stroke="#28485a" vector-effect="non-scaling-stroke" d="
  M 529.26 367.23
  C 537.37 368.12 540.12 379.55 533.71 383.31
  C 532.02 384.29 529.13 384.78 525.03 384.78
  C 452.43 384.74 379.92 384.62 307.51 384.42
  C 307.06 384.42 306.65 384.65 306.41 385.02
  L 296.21 400.95
  C 296.04 401.21 296.23 401.55 296.54 401.54
  C 304.08 401.36 312.52 401.71 319.14 401.66
  C 356.01 401.33 381.69 401.30 396.18 401.56
  C 397.32 401.58 398.86 402.09 400.81 403.09"
/>
<path stroke="#213e51" vector-effect="non-scaling-stroke" d="
  M 400.81 403.09
  C 404.82 406.06 405.88 410.08 403.97 415.14"
/>
<path stroke="#1c364a" vector-effect="non-scaling-stroke" d="
  M 403.97 415.14
  C 402.99 416.89 401.39 418.14 399.17 418.90
  C 397.38 419.51 394.99 419.81 392.00 419.80
  C 364.62 419.70 337.23 419.59 309.86 419.99
  C 303.17 420.09 296.24 419.98 289.06 419.66
  C 287.91 419.61 286.86 420.30 286.43 421.37
  L 280.91 435.40
  C 280.73 435.85 280.88 436.07 281.36 436.08
  C 286.75 436.21 292.13 436.28 297.50 436.29
  C 365.83 436.45 434.17 436.51 502.51 436.47
  C 508.60 436.47 512.38 436.33 513.86 436.04
  C 524.95 433.91 528.99 423.83 538.03 417.96"
/>
<path stroke="#213e51" vector-effect="non-scaling-stroke" d="
  M 538.03 417.96
  C 544.17 414.73 550.66 413.07 557.50 412.99
  C 611.49 412.39 673.09 413.82 728.48 412.58
  C 729.03 412.57 729.18 412.31 728.92 411.82
  L 720.69 396.55
  C 720.51 396.21 720.15 395.99 719.76 395.99
  C 682.77 396.00 645.82 396.00 608.89 395.99
  C 604.36 395.99 601.07 395.00 599.37 390.79"
/>
<path stroke="#28485a" vector-effect="non-scaling-stroke" d="
  M 599.37 390.79
  C 597.19 379.80 603.12 377.97 612.53 377.98
  C 643.53 378.01 674.52 378.02 705.51 377.99
  C 706.80 377.99 707.05 377.48 706.26 376.46
  L 694.21 360.97
  C 693.91 360.59 693.45 360.36 692.96 360.36
  C 646.65 360.59 600.27 360.51 553.82 360.13
  C 551.41 360.11 549.47 359.16 548.00 357.27"
/>
<path stroke="#365a69" vector-effect="non-scaling-stroke" d="
  M 548.00 357.27
  C 544.48 352.06 545.86 344.87 552.42 343.13
  C 555.78 342.23 561.34 342.99 564.19 342.99
  C 598.92 343.01 633.66 343.01 668.39 342.98
  C 671.14 342.98 674.44 342.62 677.55 342.78
  C 677.96 342.81 678.02 342.67 677.73 342.38
  C 673.01 337.63 656.07 321.67 651.21 321.80
  C 650.88 321.81 650.60 321.92 650.36 322.13
  C 642.37 328.95 634.34 328.80 626.26 321.67"
/>
<path stroke="#3f6775" vector-effect="non-scaling-stroke" d="
  M 626.26 321.67
  L 617.48 311.06
  C 616.92 310.38 616.13 309.93 615.27 309.78
  C 609.67 308.81 602.60 309.50 598.40 309.50
  C 527.99 309.49 457.57 309.50 387.16 309.51
  C 384.99 309.51 382.34 309.89 379.84 309.72
  C 379.55 309.70 379.28 309.77 379.05 309.94
  C 369.94 316.37 361.14 323.19 352.65 330.39
  C 352.36 330.64 352.41 330.76 352.79 330.76
  L 521.13 330.81"
/>
<path stroke="#6fa8b6" vector-effect="non-scaling-stroke" d="
  M 626.26 321.67
  C 625.48 323.87 624.37 325.12 622.93 325.41
  C 618.16 326.38 614.02 327.88 609.06 327.95
  C 605.93 328.00 602.81 328.15 599.68 328.40
  C 592.00 329.03 584.79 328.43 577.29 328.18
  C 577.02 328.17 576.77 328.25 576.54 328.40
  C 576.29 328.57 576.10 328.50 575.99 328.19
  C 575.86 327.84 575.60 327.65 575.23 327.62
  C 565.72 326.92 556.21 326.47 546.68 326.26
  C 545.30 326.23 543.82 326.80 542.26 326.73
  C 535.73 326.46 529.31 327.14 523.01 328.79
  C 522.04 329.04 521.41 329.72 521.13 330.81"
/>
<path stroke="#58899b" vector-effect="non-scaling-stroke" d="
  M 548.00 357.27
  C 547.89 358.65 546.81 359.56 544.76 359.99
  C 541.17 360.74 537.58 361.48 534.01 362.19
  C 531.99 362.60 530.73 363.70 530.24 365.49
  C 530.15 365.80 529.95 366.00 529.64 366.08
  C 528.03 366.48 527.90 366.86 529.26 367.23"
/>
<path stroke="#436c82" vector-effect="non-scaling-stroke" d="
  M 599.37 390.79
  C 594.98 391.95 590.46 392.57 585.81 392.66"
/>
<path stroke="#6dabba" vector-effect="non-scaling-stroke" d="
  M 585.81 392.66
  C 586.25 391.55 586.04 390.52 585.18 389.58
  C 584.43 388.78 583.17 388.75 582.39 389.51
  C 581.59 390.29 581.29 391.34 581.50 392.67"
/>
<path stroke="#436c82" vector-effect="non-scaling-stroke" d="
  M 581.50 392.67
  L 576.24 391.56
  C 576.15 391.54 576.07 391.59 576.05 391.68
  C 576.03 391.79 576.00 391.86 575.95 391.91
  C 575.88 391.98 575.77 391.98 575.62 391.92
  C 573.65 391.17 571.71 390.25 569.81 389.17"
/>
<path stroke="#6dabba" vector-effect="non-scaling-stroke" d="
  M 569.81 389.17
  C 570.97 387.49 569.35 384.75 567.39 385.31
  C 566.36 385.61 565.71 386.62 565.86 387.68
  C 566.03 388.90 566.77 389.74 568.07 390.21"
/>
<path stroke="#436c82" vector-effect="non-scaling-stroke" d="
  M 568.07 390.21
  L 567.56 392.94
  C 567.50 393.28 567.30 393.51 566.97 393.62
  C 560.82 395.81 554.51 396.97 548.04 397.12
  C 538.85 397.32 531.96 398.01 524.51 399.25
  C 523.74 399.38 523.18 399.77 522.82 400.43
  C 522.69 400.66 522.49 400.77 522.22 400.75
  C 521.49 400.70 520.90 400.40 520.47 399.86
  C 520.26 399.60 520.00 399.42 519.69 399.31
  C 516.72 398.31 513.65 399.37 511.18 399.27
  C 508.71 399.17 506.21 399.04 503.69 398.88"
/>
<path stroke="#6dabba" vector-effect="non-scaling-stroke" d="
  M 503.69 398.88
  C 503.76 398.21 503.60 397.58 503.21 396.97
  C 503.04 396.70 502.77 396.50 502.47 396.42
  C 500.66 395.91 499.56 396.67 499.17 398.70"
/>
<path stroke="#436c82" vector-effect="non-scaling-stroke" d="
  M 499.17 398.70
  C 495.28 397.89 491.96 397.11 487.65 397.56
  C 485.14 397.82 482.65 397.62 480.18 396.95
  C 480.13 396.94 480.09 396.96 480.08 397.01
  C 480.05 397.12 480.01 397.23 479.96 397.33
  C 479.87 397.55 479.71 397.65 479.48 397.63
  C 475.07 397.28 471.15 398.95 467.02 398.44
  C 463.59 398.01 460.16 397.90 456.71 398.12
  C 454.01 398.29 451.58 397.74 448.89 397.53
  C 448.38 397.49 448.07 397.72 447.97 398.23
  C 447.92 398.52 447.71 398.50 447.35 398.18
  C 447.21 398.06 447.04 398.00 446.87 398.00
  C 441.86 397.99 436.98 398.76 432.23 400.31
  C 431.88 400.42 431.54 400.43 431.19 400.32
  C 427.14 399.06 421.36 400.07 417.22 399.97
  C 412.93 399.86 410.13 399.92 408.81 400.15
  C 405.86 400.66 403.19 401.64 400.81 403.09"
/>
<path stroke="#66a1b1" vector-effect="non-scaling-stroke" d="
  M 569.81 389.17
  C 569.50 389.81 568.92 390.16 568.07 390.21"
/>
<path stroke="#375b73" vector-effect="non-scaling-stroke" d="
  M 538.03 417.96
  C 532.60 417.04 527.21 415.77 521.87 414.16
  C 518.08 413.02 514.45 413.87 510.58 413.73
  C 507.01 413.59 504.11 415.05 500.47 415.14"
/>
<path stroke="#66a1b1" vector-effect="non-scaling-stroke" d="
  M 500.47 415.14
  C 498.56 413.49 497.31 413.78 496.71 415.99"
/>
<path stroke="#375b73" vector-effect="non-scaling-stroke" d="
  M 496.71 415.99
  C 493.50 415.49 490.62 414.44 487.37 414.52
  C 480.21 414.69 473.10 414.34 466.03 413.49"
/>
<path stroke="#66a1b1" vector-effect="non-scaling-stroke" d="
  M 466.03 413.49
  C 466.22 411.64 465.12 410.79 462.75 410.94
  C 461.90 410.99 461.56 412.13 461.73 414.34"
/>
<path stroke="#375b73" vector-effect="non-scaling-stroke" d="
  M 461.73 414.34
  C 457.49 413.86 453.26 412.58 449.05 410.49
  C 447.98 409.96 447.00 410.05 446.13 410.78
  C 445.88 410.98 445.60 411.10 445.29 411.15
  L 441.32 411.67"
/>
<path stroke="#66a1b1" vector-effect="non-scaling-stroke" d="
  M 441.32 411.67
  C 439.69 410.28 438.26 410.18 437.04 411.37
  C 436.79 411.62 436.69 411.92 436.74 412.27
  L 437.16 415.40"
/>
<path stroke="#375b73" vector-effect="non-scaling-stroke" d="
  M 437.16 415.40
  C 433.41 416.34 428.69 416.68 423.00 416.41
  C 413.63 415.97 407.29 415.55 403.97 415.14"
/>
<path stroke="#66a1b1" vector-effect="non-scaling-stroke" d="
  M 499.17 398.70
  C 499.50 400.27 500.20 401.26 501.28 401.68
  C 501.61 401.81 501.92 401.77 502.21 401.57
  C 502.97 401.03 503.46 400.13 503.69 398.88"
/>
<path stroke="#66a1b1" vector-effect="non-scaling-stroke" d="
  M 585.81 392.66
  C 585.25 393.92 584.40 394.54 583.26 394.51
  C 582.91 394.50 582.64 394.36 582.45 394.07
  L 581.50 392.67"
/>
<path stroke="#6199aa" vector-effect="non-scaling-stroke" d="
  M 461.73 414.34
  C 461.92 415.03 462.45 415.54 463.31 415.87
  C 463.63 416.00 463.95 415.99 464.26 415.85
  C 465.35 415.37 465.94 414.58 466.03 413.49"
/>
<path stroke="#6199aa" vector-effect="non-scaling-stroke" d="
  M 496.71 415.99
  C 496.59 418.18 497.46 419.24 499.33 419.19
  C 499.68 419.18 499.94 419.02 500.09 418.71
  C 500.55 417.76 500.68 416.57 500.47 415.14"
/>
<path stroke="#6199aa" vector-effect="non-scaling-stroke" d="
  M 437.16 415.40
  C 438.10 416.20 439.18 416.23 440.41 415.50
  C 440.71 415.32 440.88 415.06 440.92 414.71
  L 441.32 411.67"
/>
<path stroke="#3d2e3f" vector-effect="non-scaling-stroke" d="
  M 740.62 433.72
  C 740.62 433.06 740.09 432.53 739.43 432.53
  L 708.99 432.53
  C 708.33 432.53 707.80 433.06 707.80 433.72
  L 707.80 433.76
  C 707.80 434.42 708.33 434.95 708.99 434.95
  L 739.43 434.95
  C 740.09 434.95 740.62 434.42 740.62 433.76
  L 740.62 433.72"
/>
<path stroke="#835d44" vector-effect="non-scaling-stroke" d="
  M 288.66 495.05
  L 304.75 552.04"
/>
<path stroke="#7f4c3d" vector-effect="non-scaling-stroke" d="
  M 304.75 552.04
  C 307.14 560.41 309.47 568.81 311.75 577.25
  C 312.27 579.17 313.09 580.95 314.21 582.59
  C 314.40 582.86 314.68 583.07 315.00 583.18
  C 319.51 584.67 327.69 583.75 332.27 583.75
  C 334.49 583.75 336.44 582.28 337.04 580.15
  L 344.79 552.71"
/>
<path stroke="#835d44" vector-effect="non-scaling-stroke" d="
  M 344.79 552.71
  L 356.15 512.89
  C 356.25 512.55 356.72 512.51 356.87 512.83
  C 357.64 514.44 358.41 516.61 359.16 519.32
  C 362.18 530.21 365.09 540.83 367.88 551.18"
/>
<path stroke="#7f4c3d" vector-effect="non-scaling-stroke" d="
  M 367.88 551.18
  L 376.80 582.06
  C 377.03 582.86 377.75 583.43 378.58 583.47
  C 383.42 583.72 388.27 583.88 393.13 583.97
  C 397.57 584.05 399.59 581.57 400.60 577.58
  C 401.81 572.80 404.42 563.37 408.42 549.29"
/>
<path stroke="#835d44" vector-effect="non-scaling-stroke" d="
  M 408.42 549.29
  C 416.65 519.66 424.73 490.23 432.64 461.02
  C 433.67 457.21 432.37 455.29 428.73 455.27
  C 422.73 455.23 416.65 455.23 410.49 455.27
  C 410.10 455.27 409.74 455.51 409.60 455.87
  C 409.01 457.37 408.32 459.58 407.54 462.51
  C 400.99 487.23 394.59 511.98 388.33 536.77
  C 387.88 538.57 387.48 540.39 387.15 542.22
  C 387.07 542.63 386.50 542.66 386.39 542.26
  L 371.63 487.44"
/>
<path stroke="#83674d" vector-effect="non-scaling-stroke" d="
  M 371.63 487.44
  C 369.24 478.00 366.81 468.58 364.34 459.18
  C 363.99 457.84 363.45 456.71 362.74 455.78
  C 362.49 455.46 362.17 455.29 361.77 455.28
  L 351.46 454.96
  C 350.58 454.94 349.80 455.52 349.57 456.36
  L 342.25 483.36"
/>
<path stroke="#835d44" vector-effect="non-scaling-stroke" d="
  M 342.25 483.36
  L 326.96 541.79
  C 326.43 543.80 325.91 543.80 325.39 541.80
  L 312.61 492.90"
/>
<path stroke="#83674d" vector-effect="non-scaling-stroke" d="
  M 312.61 492.90
  C 308.69 477.68 306.22 464.16 301.77 455.57
  C 301.60 455.25 301.27 455.05 300.91 455.06
  L 283.01 455.27
  C 280.19 455.31 278.17 458.01 278.94 460.73
  L 288.66 495.05"
/>
<path stroke="#ffab69" vector-effect="non-scaling-stroke" d="
  M 312.61 492.90
  C 309.79 492.64 307.53 493.59 304.82 492.96
  C 298.10 491.40 294.02 490.54 288.66 495.05"
/>
<path stroke="#fc8f59" vector-effect="non-scaling-stroke" d="
  M 408.42 549.29
  C 405.91 545.76 402.77 544.03 399.01 544.10
  C 394.81 544.18 391.40 544.81 387.31 544.23
  C 379.48 543.14 373.01 545.45 367.88 551.18"
/>
<path stroke="#fc8f59" vector-effect="non-scaling-stroke" d="
  M 344.79 552.71
  L 335.97 546.10
  C 335.74 545.93 335.46 545.84 335.17 545.85
  C 330.07 546.08 325.09 546.95 320.23 548.44
  C 320.07 548.49 319.99 548.43 320.00 548.26
  C 320.00 548.18 320.00 548.09 320.01 547.99
  C 320.04 547.64 319.88 547.47 319.53 547.47
  C 315.31 547.44 307.52 547.78 304.75 552.04"
/>
<path stroke="#ffab69" vector-effect="non-scaling-stroke" d="
  M 371.63 487.44
  L 356.75 486.15
  C 356.46 486.12 356.21 486.03 355.98 485.87
  C 354.97 485.16 353.86 484.68 352.64 484.44
  C 352.33 484.38 352.07 484.24 351.85 484.01
  C 351.14 483.28 350.30 482.95 349.32 483.04
  C 348.98 483.07 348.68 482.97 348.43 482.74
  L 346.61 481.11
  C 346.33 480.86 346.03 480.84 345.72 481.05
  L 342.25 483.36"
/>
<path stroke="#835d44" vector-effect="non-scaling-stroke" d="
  M 474.25 459.85
  C 474.25 457.19 472.09 455.03 469.43 455.03
  L 456.83 455.03
  C 454.17 455.03 452.01 457.19 452.01 459.85
  L 452.01 578.93
  C 452.01 581.59 454.17 583.75 456.83 583.75
  L 469.43 583.75
  C 472.09 583.75 474.25 581.59 474.25 578.93
  L 474.25 459.85"
/>
<path stroke="#825442" vector-effect="non-scaling-stroke" d="
  M 501.25 511.99
  C 500.92 534.28 500.90 556.55 501.17 578.80
  C 501.21 582.05 502.62 583.28 505.84 583.53
  C 510.93 583.92 516.06 583.84 521.21 583.27
  C 521.56 583.23 521.87 583.04 522.07 582.75
  C 523.04 581.29 523.53 579.54 523.52 577.49
  C 523.43 564.73 523.33 550.67 523.20 535.32
  C 523.19 534.27 523.71 533.75 524.76 533.75
  L 537.99 533.75
  C 538.38 533.75 538.70 533.90 538.95 534.19
  C 552.94 550.00 566.97 565.76 581.03 581.47
  C 582.06 582.62 583.21 583.20 584.50 583.22
  C 592.16 583.36 599.63 583.23 606.90 582.84
  C 608.05 582.78 608.62 581.42 607.85 580.56
  C 594.60 565.62 581.52 550.73 568.61 535.90
  C 567.84 535.01 567.12 534.06 566.45 533.03
  C 566.25 532.72 566.32 532.49 566.67 532.34
  C 588.06 523.60 596.41 500.81 587.20 479.85"
/>
<path stroke="#83674d" vector-effect="non-scaling-stroke" d="
  M 587.20 479.85
  C 578.67 463.15 563.05 455.76 544.50 455.77
  C 531.01 455.78 517.73 455.66 504.67 455.42
  C 502.81 455.39 501.28 456.89 501.28 458.75
  L 501.25 511.99"
/>
<path stroke="#ffa266" vector-effect="non-scaling-stroke" d="
  M 587.20 479.85
  L 580.35 481.93
  C 580.04 482.03 579.72 482.06 579.39 482.02
  C 573.66 481.29 569.04 483.05 565.53 487.30"
/>
<path stroke="#83674d" vector-effect="non-scaling-stroke" d="
  M 565.53 487.30
  C 560.93 480.41 555.32 479.42 546.78 479.54
  C 539.21 479.64 531.63 479.73 524.04 479.80
  C 523.71 479.80 523.54 479.97 523.54 480.30
  L 523.75 510.91"
/>
<path stroke="#ffa266" vector-effect="non-scaling-stroke" d="
  M 523.75 510.91
  C 517.82 509.76 511.90 509.95 505.99 511.50
  C 504.28 511.95 502.70 512.12 501.25 511.99"
/>
<path stroke="#825442" vector-effect="non-scaling-stroke" d="
  M 565.53 487.30
  C 569.69 494.74 568.37 502.61 561.95 507.88
  C 559.66 509.75 557.26 510.82 554.74 511.07
  C 547.31 511.82 536.98 511.77 523.75 510.91"
/>
<path stroke="#835d44" vector-effect="non-scaling-stroke" d="
  M 628.26 493.24
  L 628.27 548.99"
/>
<path stroke="#7f4c3d" vector-effect="non-scaling-stroke" d="
  M 628.27 548.99
  L 628.31 572.95
  C 628.31 574.28 629.38 575.35 630.71 575.35
  L 708.81 575.21
  C 709.15 575.20 709.32 575.03 709.32 574.69
  L 709.08 551.32
  C 709.07 550.95 708.88 550.76 708.51 550.76
  L 650.91 550.72"
/>
<path stroke="#835d44" vector-effect="non-scaling-stroke" d="
  M 650.91 550.72
  L 650.14 550.74
  C 649.71 550.75 649.50 550.54 649.50 550.12
  L 649.50 523.50
  C 649.50 523.17 649.67 523.01 650.00 523.01
  L 708.50 522.76
  C 708.83 522.75 709.00 522.58 709.00 522.25
  L 709.00 501.54
  C 709.00 501.23 708.85 501.08 708.54 501.07
  L 650.21 500.74
  C 649.77 500.74 649.55 500.52 649.55 500.08
  L 649.49 489.21"
/>
<path stroke="#83674d" vector-effect="non-scaling-stroke" d="
  M 649.49 489.21
  L 649.58 482.78
  C 649.59 482.35 649.81 482.13 650.25 482.12
  L 708.53 481.95
  C 708.84 481.94 709.00 481.78 709.00 481.47
  L 709.00 456.25
  C 709.00 456.01 708.80 455.82 708.56 455.82
  L 630.73 455.65
  C 629.70 455.64 628.83 456.41 628.70 457.44
  C 627.33 468.89 628.24 481.65 628.26 493.24"
/>
<path stroke="#ffab69" vector-effect="non-scaling-stroke" d="
  M 649.49 489.21
  L 649.28 494.39
  C 649.28 494.43 649.25 494.46 649.21 494.47
  C 649.17 494.47 649.13 494.45 649.12 494.41
  L 647.95 489.76
  C 647.88 489.47 647.70 489.28 647.43 489.19
  C 646.01 488.71 640.12 486.85 639.93 489.62
  C 639.90 489.97 639.72 490.11 639.37 490.06
  C 635.54 489.46 634.05 491.71 631.68 493.68
  C 631.39 493.91 630.97 493.86 630.76 493.56
  C 630.46 493.13 630.15 493.22 629.84 493.82
  C 629.74 494.00 629.47 493.96 629.43 493.76
  L 629.17 492.31
  C 629.15 492.20 629.06 492.13 628.95 492.14
  C 628.84 492.15 628.76 492.23 628.76 492.34
  C 628.75 493.45 628.73 494.54 628.72 495.63
  C 628.72 495.67 628.70 495.69 628.67 495.69
  C 628.66 495.69 628.64 495.69 628.62 495.69
  C 628.56 495.69 628.51 495.64 628.52 495.58
  C 628.61 494.71 628.52 493.93 628.26 493.24"
/>
<path stroke="#fc8f59" vector-effect="non-scaling-stroke" d="
  M 650.91 550.72
  C 643.45 554.18 637.59 552.65 630.33 553.69
  C 629.71 553.78 629.14 553.37 629.02 552.76
  L 628.27 548.99"
/>
<path stroke="#83674d" vector-effect="non-scaling-stroke" d="
  M 724.33 473.75
  C 725.61 475.76 730.01 481.85 732.58 481.92
  C 739.03 482.10 745.53 482.10 752.08 481.92
  C 752.56 481.91 752.65 481.71 752.35 481.34
  C 749.94 478.32 744.39 472.86 740.25 472.95
  C 735.00 473.07 729.77 473.19 724.56 473.31
  C 724.22 473.32 724.14 473.46 724.33 473.75"
/>
<path stroke="#835d44" vector-effect="non-scaling-stroke" d="
  M 732.69 517.81
  C 735.03 518.90 742.96 518.28 744.87 518.28
  C 758.06 518.25 771.26 518.24 784.47 518.26
  C 784.80 518.26 784.96 518.10 784.96 517.77
  L 785.08 508.77
  C 785.09 508.72 785.06 508.69 785.01 508.69
  C 768.34 508.74 752.53 508.75 737.57 508.72
  C 734.97 508.71 732.84 508.21 730.93 510.03
  C 728.29 512.54 729.52 516.34 732.69 517.81"
/>
<path stroke="#3d2e3f" vector-effect="non-scaling-stroke" d="
  M 269.66 522.12
  C 269.66 521.53 269.19 521.06 268.60 521.06
  L 254.36 521.06
  C 253.77 521.06 253.30 521.53 253.30 522.12
  L 253.30 522.18
  C 253.30 522.77 253.77 523.24 254.36 523.24
  L 268.60 523.24
  C 269.19 523.24 269.66 522.77 269.66 522.18
  L 269.66 522.12"
/>
<path stroke="#7f4c3d" vector-effect="non-scaling-stroke" d="
  M 724.93 554.45
  L 740.42 555.07
  C 740.68 555.08 740.94 555.01 741.17 554.87
  C 745.04 552.40 748.59 549.51 751.82 546.21
  C 752.05 545.97 751.88 545.58 751.55 545.58
  L 731.64 545.82
  C 731.41 545.83 731.20 545.91 731.02 546.05
  C 728.40 548.21 726.23 550.76 724.52 553.70
  C 724.33 554.02 724.55 554.43 724.93 554.45"
/>
<path stroke="#3d2e3f" vector-effect="non-scaling-stroke" d="
  M 278.7401 554.3382
  C 278.74 553.66 278.20 553.12 277.5222 553.1161
  L 259.0622 553.0839
  C 258.39 553.08 257.84 553.63 257.8401 554.3018
  L 257.8399 554.3818
  C 257.84 555.06 258.38 555.60 259.0578 555.6039
  L 277.5178 555.6361
  C 278.19 555.64 278.74 555.09 278.7399 554.4182
  L 278.7401 554.3382"
/>
<path stroke="#3d2e3f" vector-effect="non-scaling-stroke" d="
  M 749.5594 575.4012
  C 749.55 574.62 748.92 574.00 748.1396 574.0010
  L 719.7803 574.1990
  C 719.00 574.20 718.37 574.84 718.3802 575.6188
  L 718.3806 575.6788
  C 718.39 576.46 719.02 577.08 719.8004 577.0790
  L 748.1597 576.8810
  C 748.94 576.88 749.57 576.24 749.5598 575.4612
  L 749.5594 575.4012"
/>
<path stroke="#3d2e3f" vector-effect="non-scaling-stroke" d="
  M 300.0792 575.5315
  C 300.07 574.83 299.50 574.27 298.7981 574.2727
  L 271.8992 574.5074
  C 271.20 574.51 270.63 575.09 270.6403 575.7885
  L 270.6408 575.8485
  C 270.65 576.55 271.22 577.11 271.9219 577.1073
  L 298.8208 576.8726
  C 299.52 576.87 300.09 576.29 300.0797 575.5915
  L 300.0792 575.5315"
/>
<path stroke="#3d2e3f" vector-effect="non-scaling-stroke" d="
  M 365.3905 575.5233
  C 365.40 574.88 364.87 574.35 364.2287 574.3451
  L 348.4491 574.2349
  C 347.80 574.23 347.28 574.75 347.2710 575.3968
  L 347.2695 575.6167
  C 347.26 576.26 347.79 576.79 348.4313 576.7949
  L 364.2109 576.9051
  C 364.86 576.91 365.38 576.39 365.3890 575.7432
  L 365.3905 575.5233"
/>
<path stroke="#3d2e3f" vector-effect="non-scaling-stroke" d="
  M 441.01 575.67
  C 441.01 575.02 440.48 574.49 439.83 574.49
  L 411.73 574.49
  C 411.08 574.49 410.55 575.02 410.55 575.67
  L 410.55 575.75
  C 410.55 576.40 411.08 576.93 411.73 576.93
  L 439.83 576.93
  C 440.48 576.93 441.01 576.40 441.01 575.75
  L 441.01 575.67"
/>
<path stroke="#3d2e3f" vector-effect="non-scaling-stroke" d="
  M 725.5799 602.1310
  C 725.58 601.47 725.04 600.93 724.3778 600.9331
  L 647.7179 601.0669
  C 647.06 601.07 646.52 601.61 646.5200 602.2690
  L 646.5201 602.3090
  C 646.52 602.97 647.06 603.51 647.7222 603.5069
  L 724.3821 603.3731
  C 725.04 603.37 725.58 602.83 725.5800 602.1710
  L 725.5799 602.1310"
/>
<path stroke="#3d2e3f" vector-effect="non-scaling-stroke" d="
  M 731.7664 633.7435
  C 731.76 633.22 731.34 632.81 730.8183 632.8117
  L 687.6599 633.1884
  C 687.14 633.19 686.72 633.62 686.7282 634.1365
  L 686.7336 634.7565
  C 686.74 635.28 687.16 635.69 687.6817 635.6883
  L 730.8401 635.3116
  C 731.36 635.31 731.78 634.88 731.7718 634.3635
  L 731.7664 633.7435"
/>
<path stroke="#663837" vector-effect="non-scaling-stroke" d="
  M 638.03 681.77
  C 646.37 691.63 651.53 702.80 653.52 715.27
  C 654.73 722.91 654.19 732.85 654.30 741.53
  C 654.31 741.92 654.48 742.02 654.81 741.81
  L 663.88 736.34
  C 664.17 736.16 664.33 735.90 664.36 735.57
  C 666.66 713.30 661.11 693.57 647.71 676.36"
/>
<path stroke="#7f4c3d" vector-effect="non-scaling-stroke" d="
  M 647.71 676.36
  C 630.54 657.00 609.22 648.73 583.50 648.69
  C 482.08 648.57 380.66 648.50 279.23 648.49
  C 276.63 648.49 273.41 648.13 270.51 648.16
  C 269.93 648.17 269.80 648.41 270.11 648.90
  L 277.05 659.60
  C 277.29 659.97 277.69 660.20 278.13 660.21
  C 282.94 660.37 288.60 660.01 292.26 660.01
  C 389.15 659.99 486.04 659.99 582.93 660.02
  C 605.20 660.03 622.46 664.85 638.03 681.77"
/>
<path stroke="#df6b4c" vector-effect="non-scaling-stroke" d="
  M 647.71 676.36
  C 646.66 677.07 645.69 677.80 644.82 678.53
  C 643.81 679.38 642.80 679.99 641.80 680.37
  C 640.55 680.85 639.29 681.32 638.03 681.77"
/>
<path stroke="#3d2e3f" vector-effect="non-scaling-stroke" d="
  M 702.32 657.57
  L 702.32 659.45
  C 702.32 659.75 702.56 659.99 702.86 659.99
  L 706.56 659.98
  C 711.90 659.98 716.22 659.43 716.22 658.77
  L 716.22 658.21
  C 716.22 657.55 711.89 657.02 706.56 657.02
  L 702.86 657.03
  C 702.56 657.03 702.32 657.27 702.32 657.57"
/>
<path stroke="#663837" vector-effect="non-scaling-stroke" d="
  M 583.11 678.20
  C 599.80 690.59 613.45 705.58 617.75 726.36
  C 619.81 736.28 619.38 749.05 619.22 760.19
  C 619.22 760.49 619.53 760.70 619.80 760.57
  L 629.58 755.97
  C 629.87 755.84 630.02 755.61 630.03 755.29
  C 630.43 746.36 630.45 739.58 630.09 734.94
  C 628.12 709.61 611.15 679.72 583.40 677.44
  C 582.98 677.40 582.77 677.95 583.11 678.20"
/>
<path stroke="#4e313b" vector-effect="non-scaling-stroke" d="
  M 367.87 744.82
  C 382.71 753.63 398.16 760.96 414.21 766.81"
/>
<path stroke="#3d2e3f" vector-effect="non-scaling-stroke" d="
  M 414.21 766.81
  C 452.62 780.58 492.15 785.62 532.78 781.91
  C 533.09 781.88 533.24 781.71 533.21 781.39
  L 531.83 764.03
  C 531.79 763.57 531.54 763.33 531.08 763.30
  C 515.38 762.42 500.27 763.41 485.51 761.73
  C 476.38 760.68 465.57 758.87 453.09 756.30"
/>
<path stroke="#4e313b" vector-effect="non-scaling-stroke" d="
  M 453.09 756.30
  C 457.37 755.79 461.59 755.45 465.76 755.27
  C 485.57 754.41 505.39 753.98 525.23 753.97
  C 525.64 753.97 525.73 753.80 525.48 753.47
  C 519.20 745.10 506.40 743.91 496.17 743.85
  C 467.86 743.70 439.55 743.58 411.24 743.48
  C 406.79 743.46 401.90 740.29 398.15 738.32"
/>
<path stroke="#663837" vector-effect="non-scaling-stroke" d="
  M 398.15 738.32
  L 372.03 723.68
  C 371.61 723.44 371.77 722.80 372.25 722.79
  C 414.83 721.65 454.12 722.95 499.30 722.20
  C 519.55 721.86 539.80 728.27 548.75 748.13
  C 553.04 757.63 552.95 768.22 553.00 778.55
  C 553.00 778.89 553.17 779.03 553.51 778.98
  L 562.83 777.50
  C 563.22 777.44 563.42 777.21 563.43 776.81
  C 563.64 768.85 563.36 762.28 562.61 757.09
  C 558.72 730.03 533.02 711.37 506.58 711.78
  C 501.65 711.86 495.67 711.46 491.83 711.47
  C 446.32 711.57 400.79 711.53 355.26 711.35
  C 354.93 711.35 354.62 711.25 354.35 711.06
  C 346.64 705.56 339.11 699.36 331.76 692.46"
/>
<path stroke="#7f4c3d" vector-effect="non-scaling-stroke" d="
  M 331.76 692.46
  C 392.79 691.34 453.49 692.57 517.99 692.02
  C 526.86 691.95 533.50 692.35 537.90 693.22
  C 556.45 696.89 570.53 707.39 580.15 724.71"
/>
<path stroke="#4e313b" vector-effect="non-scaling-stroke" d="
  M 580.15 724.71
  C 587.38 740.02 586.49 754.13 587.04 770.49
  C 587.06 770.85 587.40 771.11 587.74 771.01
  L 596.55 768.59
  C 596.90 768.49 597.09 768.26 597.12 767.90
  C 598.28 753.01 597.57 737.21 591.26 723.43"
/>
<path stroke="#7f4c3d" vector-effect="non-scaling-stroke" d="
  M 591.26 723.43
  C 581.24 701.01 558.96 684.91 534.96 681.52
  C 531.36 681.01 524.71 680.76 515.01 680.76
  C 444.58 680.75 374.17 680.74 303.76 680.75"
/>
<path stroke="#663837" vector-effect="non-scaling-stroke" d="
  M 303.76 680.75
  L 292.40 680.42
  C 292.04 680.41 291.82 680.83 292.05 681.11
  C 312.09 706.28 340.44 728.37 367.87 744.82"
/>
<path stroke="#df6b4c" vector-effect="non-scaling-stroke" d="
  M 303.76 680.75
  L 303.05 681.17
  C 302.67 681.39 302.82 681.97 303.26 681.97
  L 322.99 682.13
  C 323.37 682.14 323.73 682.23 324.06 682.42
  L 327.51 684.37
  C 327.81 684.54 327.99 684.79 328.04 685.13
  C 328.10 685.55 328.26 685.80 328.53 685.87
  C 328.86 685.96 329.09 686.16 329.22 686.47
  L 331.76 692.46"
/>
<path stroke="#ae504a" vector-effect="non-scaling-stroke" d="
  M 398.15 738.32
  C 395.94 743.28 388.71 740.56 384.50 740.50
  C 384.18 740.50 384.01 740.66 384.00 740.97
  C 384.00 741.06 384.00 741.15 384.01 741.24
  C 384.04 741.59 383.88 741.77 383.54 741.80
  C 379.28 742.14 370.56 741.15 367.87 744.82"
/>
<path stroke="#854651" vector-effect="non-scaling-stroke" d="
  M 453.09 756.30
  C 446.22 754.84 438.86 754.65 431.00 755.73
  C 429.61 755.92 426.71 757.29 422.30 759.83
  C 422.02 760.00 421.80 760.22 421.65 760.51
  C 420.61 762.44 418.98 763.54 416.76 763.83
  C 416.45 763.87 416.24 764.03 416.13 764.32
  C 415.76 765.29 415.12 766.12 414.21 766.81"
/>
<path stroke="#c7644f" vector-effect="non-scaling-stroke" d="
  M 591.26 723.43
  L 589.41 725.06
  C 589.12 725.31 588.91 725.26 588.76 724.91
  C 588.57 724.45 588.24 724.31 587.76 724.49
  C 587.22 724.70 586.93 724.82 586.88 724.87
  C 586.06 725.71 582.00 724.13 580.15 724.71"
/>
<path stroke="#66a1b1" vector-effect="non-scaling-stroke" d="
  M 522.2555 405.3045
  C 523.17 404.66 523.31 403.29 522.5627 402.2285
  C 521.82 401.17 520.48 400.83 519.5645 401.4755
  C 518.65 402.12 518.51 403.49 519.2573 404.5515
  C 520.00 405.61 521.34 405.95 522.2555 405.3045"
/>
<path stroke="#66a1b1" vector-effect="non-scaling-stroke" d="
  M 449.38 406.06
  C 450.37 406.27 450.84 405.86 450.78 404.85
  L 450.70 403.35
  C 450.68 402.98 450.39 402.69 450.02 402.66
  L 447.75 402.47
  C 447.21 402.42 446.97 402.67 447.02 403.21
  C 447.17 404.81 447.95 405.76 449.38 406.06"
/>
</g>
<path fill="#061928" d="
  M 0.00 0.00
  L 1024.00 0.00
  L 1024.00 1024.00
  L 0.00 1024.00
  L 0.00 0.00
  Z
  M 253.19 403.73
  C 242.07 430.27 235.15 457.95 232.43 486.77
  C 227.80 531.72 236.15 580.21 255.20 621.45
  C 255.35 621.76 255.59 621.92 255.94 621.92
  C 274.15 622.18 292.92 621.80 310.50 621.78
  C 406.75 621.69 503.00 621.92 599.25 621.71
  C 626.15 621.65 649.90 633.94 666.74 654.83
  C 674.97 664.86 680.74 676.07 684.05 688.44
  C 686.63 698.08 686.74 709.05 686.39 719.23
  C 686.36 720.10 686.68 720.26 687.35 719.71
  C 717.22 695.04 740.78 665.32 758.03 630.53
  C 769.60 606.56 777.51 581.06 781.78 554.05
  C 782.29 550.80 782.63 548.22 782.80 546.31
  C 782.83 545.96 782.56 545.66 782.21 545.65
  L 763.08 545.44
  C 762.74 545.43 762.54 545.60 762.49 545.93
  C 758.71 569.80 752.03 592.80 742.45 614.92
  C 737.03 627.63 730.42 639.62 722.62 650.89
  C 714.06 663.27 705.76 674.28 695.14 684.11
  C 694.91 684.33 694.52 684.23 694.42 683.93
  C 689.68 670.37 682.85 658.14 673.93 647.25
  C 650.16 619.44 620.90 608.98 584.75 608.84
  C 481.67 608.43 378.59 608.37 275.50 608.65
  C 274.67 608.65 274.00 608.66 273.50 608.69
  C 273.13 608.71 272.79 608.51 272.64 608.18
  C 256.16 572.78 250.46 531.14 253.45 492.56
  C 256.64 453.22 267.93 416.54 287.31 382.53
  C 317.57 331.65 362.16 293.24 417.33 272.81
  C 539.67 227.50 670.67 275.40 734.18 389.74
  C 749.15 418.51 758.81 449.07 763.16 481.44
  C 763.21 481.81 763.42 482.00 763.80 482.00
  L 783.16 482.00
  C 783.53 482.00 783.83 481.68 783.79 481.31
  C 780.41 449.42 771.76 419.06 757.84 390.24
  C 733.50 340.07 693.09 298.34 644.97 270.62
  C 547.54 214.50 426.62 225.86 338.14 293.35
  C 321.99 305.67 307.32 320.87 294.23 336.36
  C 286.81 345.14 279.80 356.01 272.66 365.92
  C 270.44 369.01 268.89 373.52 266.30 377.36
  C 263.69 381.21 261.83 385.89 259.84 389.47
  C 257.29 394.06 255.08 398.81 253.19 403.73
  Z
  M 414.42 293.03
  L 606.29 293.00
  C 606.42 293.00 606.42 292.97 606.30 292.92
  C 589.14 285.65 571.05 279.64 552.69 276.37
  C 504.94 267.84 458.81 273.19 414.29 292.40
  C 413.31 292.82 413.35 293.03 414.42 293.03
  Z
  M 521.13 330.81
  C 524.88 333.22 526.73 336.06 526.68 339.33
  C 526.54 347.46 520.21 348.00 513.29 348.00
  C 453.88 348.00 394.65 348.00 335.59 348.00
  C 334.96 348.00 334.37 348.27 333.96 348.74
  L 318.34 366.58
  C 318.08 366.88 318.15 367.03 318.55 367.04
  L 529.26 367.23
  C 537.37 368.12 540.12 379.55 533.71 383.31
  C 532.02 384.29 529.13 384.78 525.03 384.78
  C 452.43 384.74 379.92 384.62 307.51 384.42
  C 307.06 384.42 306.65 384.65 306.41 385.02
  L 296.21 400.95
  C 296.04 401.21 296.23 401.55 296.54 401.54
  C 304.08 401.36 312.52 401.71 319.14 401.66
  C 356.01 401.33 381.69 401.30 396.18 401.56
  C 397.32 401.58 398.86 402.09 400.81 403.09
  C 404.82 406.06 405.88 410.08 403.97 415.14
  C 402.99 416.89 401.39 418.14 399.17 418.90
  C 397.38 419.51 394.99 419.81 392.00 419.80
  C 364.62 419.70 337.23 419.59 309.86 419.99
  C 303.17 420.09 296.24 419.98 289.06 419.66
  C 287.91 419.61 286.86 420.30 286.43 421.37
  L 280.91 435.40
  C 280.73 435.85 280.88 436.07 281.36 436.08
  C 286.75 436.21 292.13 436.28 297.50 436.29
  C 365.83 436.45 434.17 436.51 502.51 436.47
  C 508.60 436.47 512.38 436.33 513.86 436.04
  C 524.95 433.91 528.99 423.83 538.03 417.96
  C 544.17 414.73 550.66 413.07 557.50 412.99
  C 611.49 412.39 673.09 413.82 728.48 412.58
  C 729.03 412.57 729.18 412.31 728.92 411.82
  L 720.69 396.55
  C 720.51 396.21 720.15 395.99 719.76 395.99
  C 682.77 396.00 645.82 396.00 608.89 395.99
  C 604.36 395.99 601.07 395.00 599.37 390.79
  C 597.19 379.80 603.12 377.97 612.53 377.98
  C 643.53 378.01 674.52 378.02 705.51 377.99
  C 706.80 377.99 707.05 377.48 706.26 376.46
  L 694.21 360.97
  C 693.91 360.59 693.45 360.36 692.96 360.36
  C 646.65 360.59 600.27 360.51 553.82 360.13
  C 551.41 360.11 549.47 359.16 548.00 357.27
  C 544.48 352.06 545.86 344.87 552.42 343.13
  C 555.78 342.23 561.34 342.99 564.19 342.99
  C 598.92 343.01 633.66 343.01 668.39 342.98
  C 671.14 342.98 674.44 342.62 677.55 342.78
  C 677.96 342.81 678.02 342.67 677.73 342.38
  C 673.01 337.63 656.07 321.67 651.21 321.80
  C 650.88 321.81 650.60 321.92 650.36 322.13
  C 642.37 328.95 634.34 328.80 626.26 321.67
  L 617.48 311.06
  C 616.92 310.38 616.13 309.93 615.27 309.78
  C 609.67 308.81 602.60 309.50 598.40 309.50
  C 527.99 309.49 457.57 309.50 387.16 309.51
  C 384.99 309.51 382.34 309.89 379.84 309.72
  C 379.55 309.70 379.28 309.77 379.05 309.94
  C 369.94 316.37 361.14 323.19 352.65 330.39
  C 352.36 330.64 352.41 330.76 352.79 330.76
  L 521.13 330.81
  Z
  M 740.62 433.72
  C 740.62 433.06 740.09 432.53 739.43 432.53
  L 708.99 432.53
  C 708.33 432.53 707.80 433.06 707.80 433.72
  L 707.80 433.76
  C 707.80 434.42 708.33 434.95 708.99 434.95
  L 739.43 434.95
  C 740.09 434.95 740.62 434.42 740.62 433.76
  L 740.62 433.72
  Z
  M 288.66 495.05
  L 304.75 552.04
  C 307.14 560.41 309.47 568.81 311.75 577.25
  C 312.27 579.17 313.09 580.95 314.21 582.59
  C 314.40 582.86 314.68 583.07 315.00 583.18
  C 319.51 584.67 327.69 583.75 332.27 583.75
  C 334.49 583.75 336.44 582.28 337.04 580.15
  L 344.79 552.71
  L 356.15 512.89
  C 356.25 512.55 356.72 512.51 356.87 512.83
  C 357.64 514.44 358.41 516.61 359.16 519.32
  C 362.18 530.21 365.09 540.83 367.88 551.18
  L 376.80 582.06
  C 377.03 582.86 377.75 583.43 378.58 583.47
  C 383.42 583.72 388.27 583.88 393.13 583.97
  C 397.57 584.05 399.59 581.57 400.60 577.58
  C 401.81 572.80 404.42 563.37 408.42 549.29
  C 416.65 519.66 424.73 490.23 432.64 461.02
  C 433.67 457.21 432.37 455.29 428.73 455.27
  C 422.73 455.23 416.65 455.23 410.49 455.27
  C 410.10 455.27 409.74 455.51 409.60 455.87
  C 409.01 457.37 408.32 459.58 407.54 462.51
  C 400.99 487.23 394.59 511.98 388.33 536.77
  C 387.88 538.57 387.48 540.39 387.15 542.22
  C 387.07 542.63 386.50 542.66 386.39 542.26
  L 371.63 487.44
  C 369.24 478.00 366.81 468.58 364.34 459.18
  C 363.99 457.84 363.45 456.71 362.74 455.78
  C 362.49 455.46 362.17 455.29 361.77 455.28
  L 351.46 454.96
  C 350.58 454.94 349.80 455.52 349.57 456.36
  L 342.25 483.36
  L 326.96 541.79
  C 326.43 543.80 325.91 543.80 325.39 541.80
  L 312.61 492.90
  C 308.69 477.68 306.22 464.16 301.77 455.57
  C 301.60 455.25 301.27 455.05 300.91 455.06
  L 283.01 455.27
  C 280.19 455.31 278.17 458.01 278.94 460.73
  L 288.66 495.05
  Z
  M 474.25 459.85
  C 474.25 457.19 472.09 455.03 469.43 455.03
  L 456.83 455.03
  C 454.17 455.03 452.01 457.19 452.01 459.85
  L 452.01 578.93
  C 452.01 581.59 454.17 583.75 456.83 583.75
  L 469.43 583.75
  C 472.09 583.75 474.25 581.59 474.25 578.93
  L 474.25 459.85
  Z
  M 501.25 511.99
  C 500.92 534.28 500.90 556.55 501.17 578.80
  C 501.21 582.05 502.62 583.28 505.84 583.53
  C 510.93 583.92 516.06 583.84 521.21 583.27
  C 521.56 583.23 521.87 583.04 522.07 582.75
  C 523.04 581.29 523.53 579.54 523.52 577.49
  C 523.43 564.73 523.33 550.67 523.20 535.32
  C 523.19 534.27 523.71 533.75 524.76 533.75
  L 537.99 533.75
  C 538.38 533.75 538.70 533.90 538.95 534.19
  C 552.94 550.00 566.97 565.76 581.03 581.47
  C 582.06 582.62 583.21 583.20 584.50 583.22
  C 592.16 583.36 599.63 583.23 606.90 582.84
  C 608.05 582.78 608.62 581.42 607.85 580.56
  C 594.60 565.62 581.52 550.73 568.61 535.90
  C 567.84 535.01 567.12 534.06 566.45 533.03
  C 566.25 532.72 566.32 532.49 566.67 532.34
  C 588.06 523.60 596.41 500.81 587.20 479.85
  C 578.67 463.15 563.05 455.76 544.50 455.77
  C 531.01 455.78 517.73 455.66 504.67 455.42
  C 502.81 455.39 501.28 456.89 501.28 458.75
  L 501.25 511.99
  Z
  M 628.26 493.24
  L 628.27 548.99
  L 628.31 572.95
  C 628.31 574.28 629.38 575.35 630.71 575.35
  L 708.81 575.21
  C 709.15 575.20 709.32 575.03 709.32 574.69
  L 709.08 551.32
  C 709.07 550.95 708.88 550.76 708.51 550.76
  L 650.91 550.72
  L 650.14 550.74
  C 649.71 550.75 649.50 550.54 649.50 550.12
  L 649.50 523.50
  C 649.50 523.17 649.67 523.01 650.00 523.01
  L 708.50 522.76
  C 708.83 522.75 709.00 522.58 709.00 522.25
  L 709.00 501.54
  C 709.00 501.23 708.85 501.08 708.54 501.07
  L 650.21 500.74
  C 649.77 500.74 649.55 500.52 649.55 500.08
  L 649.49 489.21
  L 649.58 482.78
  C 649.59 482.35 649.81 482.13 650.25 482.12
  L 708.53 481.95
  C 708.84 481.94 709.00 481.78 709.00 481.47
  L 709.00 456.25
  C 709.00 456.01 708.80 455.82 708.56 455.82
  L 630.73 455.65
  C 629.70 455.64 628.83 456.41 628.70 457.44
  C 627.33 468.89 628.24 481.65 628.26 493.24
  Z
  M 724.33 473.75
  C 725.61 475.76 730.01 481.85 732.58 481.92
  C 739.03 482.10 745.53 482.10 752.08 481.92
  C 752.56 481.91 752.65 481.71 752.35 481.34
  C 749.94 478.32 744.39 472.86 740.25 472.95
  C 735.00 473.07 729.77 473.19 724.56 473.31
  C 724.22 473.32 724.14 473.46 724.33 473.75
  Z
  M 732.69 517.81
  C 735.03 518.90 742.96 518.28 744.87 518.28
  C 758.06 518.25 771.26 518.24 784.47 518.26
  C 784.80 518.26 784.96 518.10 784.96 517.77
  L 785.08 508.77
  C 785.09 508.72 785.06 508.69 785.01 508.69
  C 768.34 508.74 752.53 508.75 737.57 508.72
  C 734.97 508.71 732.84 508.21 730.93 510.03
  C 728.29 512.54 729.52 516.34 732.69 517.81
  Z
  M 269.66 522.12
  C 269.66 521.53 269.19 521.06 268.60 521.06
  L 254.36 521.06
  C 253.77 521.06 253.30 521.53 253.30 522.12
  L 253.30 522.18
  C 253.30 522.77 253.77 523.24 254.36 523.24
  L 268.60 523.24
  C 269.19 523.24 269.66 522.77 269.66 522.18
  L 269.66 522.12
  Z
  M 724.93 554.45
  L 740.42 555.07
  C 740.68 555.08 740.94 555.01 741.17 554.87
  C 745.04 552.40 748.59 549.51 751.82 546.21
  C 752.05 545.97 751.88 545.58 751.55 545.58
  L 731.64 545.82
  C 731.41 545.83 731.20 545.91 731.02 546.05
  C 728.40 548.21 726.23 550.76 724.52 553.70
  C 724.33 554.02 724.55 554.43 724.93 554.45
  Z
  M 278.7401 554.3382
  C 278.74 553.66 278.20 553.12 277.5222 553.1161
  L 259.0622 553.0839
  C 258.39 553.08 257.84 553.63 257.8401 554.3018
  L 257.8399 554.3818
  C 257.84 555.06 258.38 555.60 259.0578 555.6039
  L 277.5178 555.6361
  C 278.19 555.64 278.74 555.09 278.7399 554.4182
  L 278.7401 554.3382
  Z
  M 749.5594 575.4012
  C 749.55 574.62 748.92 574.00 748.1396 574.0010
  L 719.7803 574.1990
  C 719.00 574.20 718.37 574.84 718.3802 575.6188
  L 718.3806 575.6788
  C 718.39 576.46 719.02 577.08 719.8004 577.0790
  L 748.1597 576.8810
  C 748.94 576.88 749.57 576.24 749.5598 575.4612
  L 749.5594 575.4012
  Z
  M 300.0792 575.5315
  C 300.07 574.83 299.50 574.27 298.7981 574.2727
  L 271.8992 574.5074
  C 271.20 574.51 270.63 575.09 270.6403 575.7885
  L 270.6408 575.8485
  C 270.65 576.55 271.22 577.11 271.9219 577.1073
  L 298.8208 576.8726
  C 299.52 576.87 300.09 576.29 300.0797 575.5915
  L 300.0792 575.5315
  Z
  M 365.3905 575.5233
  C 365.40 574.88 364.87 574.35 364.2287 574.3451
  L 348.4491 574.2349
  C 347.80 574.23 347.28 574.75 347.2710 575.3968
  L 347.2695 575.6167
  C 347.26 576.26 347.79 576.79 348.4313 576.7949
  L 364.2109 576.9051
  C 364.86 576.91 365.38 576.39 365.3890 575.7432
  L 365.3905 575.5233
  Z
  M 441.01 575.67
  C 441.01 575.02 440.48 574.49 439.83 574.49
  L 411.73 574.49
  C 411.08 574.49 410.55 575.02 410.55 575.67
  L 410.55 575.75
  C 410.55 576.40 411.08 576.93 411.73 576.93
  L 439.83 576.93
  C 440.48 576.93 441.01 576.40 441.01 575.75
  L 441.01 575.67
  Z
  M 725.5799 602.1310
  C 725.58 601.47 725.04 600.93 724.3778 600.9331
  L 647.7179 601.0669
  C 647.06 601.07 646.52 601.61 646.5200 602.2690
  L 646.5201 602.3090
  C 646.52 602.97 647.06 603.51 647.7222 603.5069
  L 724.3821 603.3731
  C 725.04 603.37 725.58 602.83 725.5800 602.1710
  L 725.5799 602.1310
  Z
  M 731.7664 633.7435
  C 731.76 633.22 731.34 632.81 730.8183 632.8117
  L 687.6599 633.1884
  C 687.14 633.19 686.72 633.62 686.7282 634.1365
  L 686.7336 634.7565
  C 686.74 635.28 687.16 635.69 687.6817 635.6883
  L 730.8401 635.3116
  C 731.36 635.31 731.78 634.88 731.7718 634.3635
  L 731.7664 633.7435
  Z
  M 638.03 681.77
  C 646.37 691.63 651.53 702.80 653.52 715.27
  C 654.73 722.91 654.19 732.85 654.30 741.53
  C 654.31 741.92 654.48 742.02 654.81 741.81
  L 663.88 736.34
  C 664.17 736.16 664.33 735.90 664.36 735.57
  C 666.66 713.30 661.11 693.57 647.71 676.36
  C 630.54 657.00 609.22 648.73 583.50 648.69
  C 482.08 648.57 380.66 648.50 279.23 648.49
  C 276.63 648.49 273.41 648.13 270.51 648.16
  C 269.93 648.17 269.80 648.41 270.11 648.90
  L 277.05 659.60
  C 277.29 659.97 277.69 660.20 278.13 660.21
  C 282.94 660.37 288.60 660.01 292.26 660.01
  C 389.15 659.99 486.04 659.99 582.93 660.02
  C 605.20 660.03 622.46 664.85 638.03 681.77
  Z
  M 702.32 657.57
  L 702.32 659.45
  C 702.32 659.75 702.56 659.99 702.86 659.99
  L 706.56 659.98
  C 711.90 659.98 716.22 659.43 716.22 658.77
  L 716.22 658.21
  C 716.22 657.55 711.89 657.02 706.56 657.02
  L 702.86 657.03
  C 702.56 657.03 702.32 657.27 702.32 657.57
  Z
  M 583.11 678.20
  C 599.80 690.59 613.45 705.58 617.75 726.36
  C 619.81 736.28 619.38 749.05 619.22 760.19
  C 619.22 760.49 619.53 760.70 619.80 760.57
  L 629.58 755.97
  C 629.87 755.84 630.02 755.61 630.03 755.29
  C 630.43 746.36 630.45 739.58 630.09 734.94
  C 628.12 709.61 611.15 679.72 583.40 677.44
  C 582.98 677.40 582.77 677.95 583.11 678.20
  Z
  M 367.87 744.82
  C 382.71 753.63 398.16 760.96 414.21 766.81
  C 452.62 780.58 492.15 785.62 532.78 781.91
  C 533.09 781.88 533.24 781.71 533.21 781.39
  L 531.83 764.03
  C 531.79 763.57 531.54 763.33 531.08 763.30
  C 515.38 762.42 500.27 763.41 485.51 761.73
  C 476.38 760.68 465.57 758.87 453.09 756.30
  C 457.37 755.79 461.59 755.45 465.76 755.27
  C 485.57 754.41 505.39 753.98 525.23 753.97
  C 525.64 753.97 525.73 753.80 525.48 753.47
  C 519.20 745.10 506.40 743.91 496.17 743.85
  C 467.86 743.70 439.55 743.58 411.24 743.48
  C 406.79 743.46 401.90 740.29 398.15 738.32
  L 372.03 723.68
  C 371.61 723.44 371.77 722.80 372.25 722.79
  C 414.83 721.65 454.12 722.95 499.30 722.20
  C 519.55 721.86 539.80 728.27 548.75 748.13
  C 553.04 757.63 552.95 768.22 553.00 778.55
  C 553.00 778.89 553.17 779.03 553.51 778.98
  L 562.83 777.50
  C 563.22 777.44 563.42 777.21 563.43 776.81
  C 563.64 768.85 563.36 762.28 562.61 757.09
  C 558.72 730.03 533.02 711.37 506.58 711.78
  C 501.65 711.86 495.67 711.46 491.83 711.47
  C 446.32 711.57 400.79 711.53 355.26 711.35
  C 354.93 711.35 354.62 711.25 354.35 711.06
  C 346.64 705.56 339.11 699.36 331.76 692.46
  C 392.79 691.34 453.49 692.57 517.99 692.02
  C 526.86 691.95 533.50 692.35 537.90 693.22
  C 556.45 696.89 570.53 707.39 580.15 724.71
  C 587.38 740.02 586.49 754.13 587.04 770.49
  C 587.06 770.85 587.40 771.11 587.74 771.01
  L 596.55 768.59
  C 596.90 768.49 597.09 768.26 597.12 767.90
  C 598.28 753.01 597.57 737.21 591.26 723.43
  C 581.24 701.01 558.96 684.91 534.96 681.52
  C 531.36 681.01 524.71 680.76 515.01 680.76
  C 444.58 680.75 374.17 680.74 303.76 680.75
  L 292.40 680.42
  C 292.04 680.41 291.82 680.83 292.05 681.11
  C 312.09 706.28 340.44 728.37 367.87 744.82
  Z"
/>
<g>
<path fill="#ffe39e" d="
  M 757.84 390.24
  L 756.60 390.66
  C 756.31 390.76 756.03 390.73 755.77 390.58
  L 745.17 384.21
  C 744.86 384.02 744.52 383.95 744.15 383.99
  C 743.31 384.08 742.54 384.39 741.83 384.90
  C 741.53 385.11 741.20 385.24 740.83 385.28
  L 734.60 386.02
  C 734.45 386.03 734.35 385.97 734.29 385.84
  C 734.22 385.67 734.17 385.49 734.14 385.30
  C 734.13 385.21 734.05 385.15 733.96 385.16
  C 733.88 385.18 733.81 385.25 733.82 385.34
  L 734.18 389.74
  C 670.67 275.40 539.67 227.50 417.33 272.81
  C 362.16 293.24 317.57 331.65 287.31 382.53
  C 286.32 381.80 286.14 381.14 286.76 380.55
  C 287.50 379.85 286.75 378.63 285.79 378.98
  C 284.50 379.46 283.56 380.32 282.97 381.55
  C 282.82 381.87 282.58 382.13 282.27 382.30
  L 279.79 383.69
  C 279.72 383.73 279.71 383.78 279.78 383.83
  L 279.98 384.01
  C 280.12 384.13 280.11 384.24 279.96 384.34
  C 278.90 385.01 277.87 385.73 276.87 386.49
  C 274.18 388.53 270.56 389.34 267.59 391.22
  C 267.28 391.42 267.05 391.69 266.92 392.04
  C 266.51 393.11 265.66 393.56 264.39 393.39
  C 264.27 393.37 264.20 393.52 264.29 393.60
  L 264.59 393.86
  C 264.67 393.92 264.67 393.98 264.58 394.03
  L 259.31 397.32
  C 259.04 397.49 258.81 397.71 258.64 397.98
  C 258.19 398.65 257.59 399.21 256.86 399.65
  C 256.62 399.80 256.46 400.03 256.41 400.30
  C 256.09 402.07 255.02 403.22 253.19 403.73
  C 255.08 398.81 257.29 394.06 259.84 389.47
  C 261.83 385.89 263.69 381.21 266.30 377.36
  C 268.89 373.52 270.44 369.01 272.66 365.92
  C 279.80 356.01 286.81 345.14 294.23 336.36
  C 307.32 320.87 321.99 305.67 338.14 293.35
  C 426.62 225.86 547.54 214.50 644.97 270.62
  C 693.09 298.34 733.50 340.07 757.84 390.24
  Z"
/>
<path fill="#8fdfe8" d="
  M 414.42 293.03
  C 413.35 293.03 413.31 292.82 414.29 292.40
  C 458.81 273.19 504.94 267.84 552.69 276.37
  C 571.05 279.64 589.14 285.65 606.30 292.92
  C 606.42 292.97 606.42 293.00 606.29 293.00
  L 414.42 293.03
  Z"
/>
<path fill="#78b5c2" d="
  M 626.26 321.67
  C 625.48 323.87 624.37 325.12 622.93 325.41
  C 618.16 326.38 614.02 327.88 609.06 327.95
  C 605.93 328.00 602.81 328.15 599.68 328.40
  C 592.00 329.03 584.79 328.43 577.29 328.18
  C 577.02 328.17 576.77 328.25 576.54 328.40
  C 576.29 328.57 576.10 328.50 575.99 328.19
  C 575.86 327.84 575.60 327.65 575.23 327.62
  C 565.72 326.92 556.21 326.47 546.68 326.26
  C 545.30 326.23 543.82 326.80 542.26 326.73
  C 535.73 326.46 529.31 327.14 523.01 328.79
  C 522.04 329.04 521.41 329.72 521.13 330.81
  L 352.79 330.76
  C 352.41 330.76 352.36 330.64 352.65 330.39
  C 361.14 323.19 369.94 316.37 379.05 309.94
  C 379.28 309.77 379.55 309.70 379.84 309.72
  C 382.34 309.89 384.99 309.51 387.16 309.51
  C 457.57 309.50 527.99 309.49 598.40 309.50
  C 602.60 309.50 609.67 308.81 615.27 309.78
  C 616.13 309.93 616.92 310.38 617.48 311.06
  L 626.26 321.67
  Z"
/>
<path fill="#659baa" d="
  M 626.26 321.67
  C 634.34 328.80 642.37 328.95 650.36 322.13
  C 650.60 321.92 650.88 321.81 651.21 321.80
  C 656.07 321.67 673.01 337.63 677.73 342.38
  C 678.02 342.67 677.96 342.81 677.55 342.78
  C 674.44 342.62 671.14 342.98 668.39 342.98
  C 633.66 343.01 598.92 343.01 564.19 342.99
  C 561.34 342.99 555.78 342.23 552.42 343.13
  C 545.86 344.87 544.48 352.06 548.00 357.27
  C 547.89 358.65 546.81 359.56 544.76 359.99
  C 541.17 360.74 537.58 361.48 534.01 362.19
  C 531.99 362.60 530.73 363.70 530.24 365.49
  C 530.15 365.80 529.95 366.00 529.64 366.08
  C 528.03 366.48 527.90 366.86 529.26 367.23
  L 318.55 367.04
  C 318.15 367.03 318.08 366.88 318.34 366.58
  L 333.96 348.74
  C 334.37 348.27 334.96 348.00 335.59 348.00
  C 394.65 348.00 453.88 348.00 513.29 348.00
  C 520.21 348.00 526.54 347.46 526.68 339.33
  C 526.73 336.06 524.88 333.22 521.13 330.81
  C 521.41 329.72 522.04 329.04 523.01 328.79
  C 529.31 327.14 535.73 326.46 542.26 326.73
  C 543.82 326.80 545.30 326.23 546.68 326.26
  C 556.21 326.47 565.72 326.92 575.23 327.62
  C 575.60 327.65 575.86 327.84 575.99 328.19
  C 576.10 328.50 576.29 328.57 576.54 328.40
  C 576.77 328.25 577.02 328.17 577.29 328.18
  C 584.79 328.43 592.00 329.03 599.68 328.40
  C 602.81 328.15 605.93 328.00 609.06 327.95
  C 614.02 327.88 618.16 326.38 622.93 325.41
  C 624.37 325.12 625.48 323.87 626.26 321.67
  Z"
/>
<path fill="#4a768b" d="
  M 548.00 357.27
  C 549.47 359.16 551.41 360.11 553.82 360.13
  C 600.27 360.51 646.65 360.59 692.96 360.36
  C 693.45 360.36 693.91 360.59 694.21 360.97
  L 706.26 376.46
  C 707.05 377.48 706.80 377.99 705.51 377.99
  C 674.52 378.02 643.53 378.01 612.53 377.98
  C 603.12 377.97 597.19 379.80 599.37 390.79
  C 594.98 391.95 590.46 392.57 585.81 392.66
  C 586.25 391.55 586.04 390.52 585.18 389.58
  C 584.43 388.78 583.17 388.75 582.39 389.51
  C 581.59 390.29 581.29 391.34 581.50 392.67
  L 576.24 391.56
  C 576.15 391.54 576.07 391.59 576.05 391.68
  C 576.03 391.79 576.00 391.86 575.95 391.91
  C 575.88 391.98 575.77 391.98 575.62 391.92
  C 573.65 391.17 571.71 390.25 569.81 389.17
  C 570.97 387.49 569.35 384.75 567.39 385.31
  C 566.36 385.61 565.71 386.62 565.86 387.68
  C 566.03 388.90 566.77 389.74 568.07 390.21
  L 567.56 392.94
  C 567.50 393.28 567.30 393.51 566.97 393.62
  C 560.82 395.81 554.51 396.97 548.04 397.12
  C 538.85 397.32 531.96 398.01 524.51 399.25
  C 523.74 399.38 523.18 399.77 522.82 400.43
  C 522.69 400.66 522.49 400.77 522.22 400.75
  C 521.49 400.70 520.90 400.40 520.47 399.86
  C 520.26 399.60 520.00 399.42 519.69 399.31
  C 516.72 398.31 513.65 399.37 511.18 399.27
  C 508.71 399.17 506.21 399.04 503.69 398.88
  C 503.76 398.21 503.60 397.58 503.21 396.97
  C 503.04 396.70 502.77 396.50 502.47 396.42
  C 500.66 395.91 499.56 396.67 499.17 398.70
  C 495.28 397.89 491.96 397.11 487.65 397.56
  C 485.14 397.82 482.65 397.62 480.18 396.95
  C 480.13 396.94 480.09 396.96 480.08 397.01
  C 480.05 397.12 480.01 397.23 479.96 397.33
  C 479.87 397.55 479.71 397.65 479.48 397.63
  C 475.07 397.28 471.15 398.95 467.02 398.44
  C 463.59 398.01 460.16 397.90 456.71 398.12
  C 454.01 398.29 451.58 397.74 448.89 397.53
  C 448.38 397.49 448.07 397.72 447.97 398.23
  C 447.92 398.52 447.71 398.50 447.35 398.18
  C 447.21 398.06 447.04 398.00 446.87 398.00
  C 441.86 397.99 436.98 398.76 432.23 400.31
  C 431.88 400.42 431.54 400.43 431.19 400.32
  C 427.14 399.06 421.36 400.07 417.22 399.97
  C 412.93 399.86 410.13 399.92 408.81 400.15
  C 405.86 400.66 403.19 401.64 400.81 403.09
  C 398.86 402.09 397.32 401.58 396.18 401.56
  C 381.69 401.30 356.01 401.33 319.14 401.66
  C 312.52 401.71 304.08 401.36 296.54 401.54
  C 296.23 401.55 296.04 401.21 296.21 400.95
  L 306.41 385.02
  C 306.65 384.65 307.06 384.42 307.51 384.42
  C 379.92 384.62 452.43 384.74 525.03 384.78
  C 529.13 384.78 532.02 384.29 533.71 383.31
  C 540.12 379.55 537.37 368.12 529.26 367.23
  C 527.90 366.86 528.03 366.48 529.64 366.08
  C 529.95 366.00 530.15 365.80 530.24 365.49
  C 530.73 363.70 531.99 362.60 534.01 362.19
  C 537.58 361.48 541.17 360.74 544.76 359.99
  C 546.81 359.56 547.89 358.65 548.00 357.27
  Z"
/>
<path fill="#ffb571" d="
  M 287.31 382.53
  C 267.93 416.54 256.64 453.22 253.45 492.56
  L 252.64 488.29
  C 252.59 488.03 252.45 487.78 252.24 487.61
  L 247.85 483.99
  C 247.53 483.72 247.17 483.64 246.76 483.75
  L 244.87 484.25
  C 244.52 484.34 244.17 484.31 243.84 484.14
  C 241.52 482.98 239.14 482.82 236.70 483.66
  C 236.31 483.79 236.21 484.04 236.40 484.40
  L 237.07 485.71
  C 237.18 485.92 237.12 486.05 236.89 486.10
  L 233.14 486.92
  C 232.99 486.95 232.86 486.93 232.73 486.86
  C 232.64 486.81 232.54 486.78 232.43 486.77
  C 235.15 457.95 242.07 430.27 253.19 403.73
  C 255.02 403.22 256.09 402.07 256.41 400.30
  C 256.46 400.03 256.62 399.80 256.86 399.65
  C 257.59 399.21 258.19 398.65 258.64 397.98
  C 258.81 397.71 259.04 397.49 259.31 397.32
  L 264.58 394.03
  C 264.67 393.98 264.67 393.92 264.59 393.86
  L 264.29 393.60
  C 264.20 393.52 264.27 393.37 264.39 393.39
  C 265.66 393.56 266.51 393.11 266.92 392.04
  C 267.05 391.69 267.28 391.42 267.59 391.22
  C 270.56 389.34 274.18 388.53 276.87 386.49
  C 277.87 385.73 278.90 385.01 279.96 384.34
  C 280.11 384.24 280.12 384.13 279.98 384.01
  L 279.78 383.83
  C 279.71 383.78 279.72 383.73 279.79 383.69
  L 282.27 382.30
  C 282.58 382.13 282.82 381.87 282.97 381.55
  C 283.56 380.32 284.50 379.46 285.79 378.98
  C 286.75 378.63 287.50 379.85 286.76 380.55
  C 286.14 381.14 286.32 381.80 287.31 382.53
  Z"
/>
<path fill="#ffb571" d="
  M 757.84 390.24
  C 771.76 419.06 780.41 449.42 783.79 481.31
  C 783.83 481.68 783.53 482.00 783.16 482.00
  L 763.80 482.00
  C 763.42 482.00 763.21 481.81 763.16 481.44
  C 758.81 449.07 749.15 418.51 734.18 389.74
  L 733.82 385.34
  C 733.81 385.25 733.88 385.18 733.96 385.16
  C 734.05 385.15 734.13 385.21 734.14 385.30
  C 734.17 385.49 734.22 385.67 734.29 385.84
  C 734.35 385.97 734.45 386.03 734.60 386.02
  L 740.83 385.28
  C 741.20 385.24 741.53 385.11 741.83 384.90
  C 742.54 384.39 743.31 384.08 744.15 383.99
  C 744.52 383.95 744.86 384.02 745.17 384.21
  L 755.77 390.58
  C 756.03 390.73 756.31 390.76 756.60 390.66
  L 757.84 390.24
  Z"
/>
<path fill="#8fdfe8" d="
  M 569.81 389.17
  C 569.50 389.81 568.92 390.16 568.07 390.21
  C 566.77 389.74 566.03 388.90 565.86 387.68
  C 565.71 386.62 566.36 385.61 567.39 385.31
  C 569.35 384.75 570.97 387.49 569.81 389.17
  Z"
/>
<path fill="#8fdfe8" d="
  M 585.81 392.66
  C 585.25 393.92 584.40 394.54 583.26 394.51
  C 582.91 394.50 582.64 394.36 582.45 394.07
  L 581.50 392.67
  C 581.29 391.34 581.59 390.29 582.39 389.51
  C 583.17 388.75 584.43 388.78 585.18 389.58
  C 586.04 390.52 586.25 391.55 585.81 392.66
  Z"
/>
<path fill="#3c6279" d="
  M 569.81 389.17
  C 571.71 390.25 573.65 391.17 575.62 391.92
  C 575.77 391.98 575.88 391.98 575.95 391.91
  C 576.00 391.86 576.03 391.79 576.05 391.68
  C 576.07 391.59 576.15 391.54 576.24 391.56
  L 581.50 392.67
  L 582.45 394.07
  C 582.64 394.36 582.91 394.50 583.26 394.51
  C 584.40 394.54 585.25 393.92 585.81 392.66
  C 590.46 392.57 594.98 391.95 599.37 390.79
  C 601.07 395.00 604.36 395.99 608.89 395.99
  C 645.82 396.00 682.77 396.00 719.76 395.99
  C 720.15 395.99 720.51 396.21 720.69 396.55
  L 728.92 411.82
  C 729.18 412.31 729.03 412.57 728.48 412.58
  C 673.09 413.82 611.49 412.39 557.50 412.99
  C 550.66 413.07 544.17 414.73 538.03 417.96
  C 532.60 417.04 527.21 415.77 521.87 414.16
  C 518.08 413.02 514.45 413.87 510.58 413.73
  C 507.01 413.59 504.11 415.05 500.47 415.14
  C 498.56 413.49 497.31 413.78 496.71 415.99
  C 493.50 415.49 490.62 414.44 487.37 414.52
  C 480.21 414.69 473.10 414.34 466.03 413.49
  C 466.22 411.64 465.12 410.79 462.75 410.94
  C 461.90 410.99 461.56 412.13 461.73 414.34
  C 457.49 413.86 453.26 412.58 449.05 410.49
  C 447.98 409.96 447.00 410.05 446.13 410.78
  C 445.88 410.98 445.60 411.10 445.29 411.15
  L 441.32 411.67
  C 439.69 410.28 438.26 410.18 437.04 411.37
  C 436.79 411.62 436.69 411.92 436.74 412.27
  L 437.16 415.40
  C 433.41 416.34 428.69 416.68 423.00 416.41
  C 413.63 415.97 407.29 415.55 403.97 415.14
  C 405.88 410.08 404.82 406.06 400.81 403.09
  C 403.19 401.64 405.86 400.66 408.81 400.15
  C 410.13 399.92 412.93 399.86 417.22 399.97
  C 421.36 400.07 427.14 399.06 431.19 400.32
  C 431.54 400.43 431.88 400.42 432.23 400.31
  C 436.98 398.76 441.86 397.99 446.87 398.00
  C 447.04 398.00 447.21 398.06 447.35 398.18
  C 447.71 398.50 447.92 398.52 447.97 398.23
  C 448.07 397.72 448.38 397.49 448.89 397.53
  C 451.58 397.74 454.01 398.29 456.71 398.12
  C 460.16 397.90 463.59 398.01 467.02 398.44
  C 471.15 398.95 475.07 397.28 479.48 397.63
  C 479.71 397.65 479.87 397.55 479.96 397.33
  C 480.01 397.23 480.05 397.12 480.08 397.01
  C 480.09 396.96 480.13 396.94 480.18 396.95
  C 482.65 397.62 485.14 397.82 487.65 397.56
  C 491.96 397.11 495.28 397.89 499.17 398.70
  C 499.50 400.27 500.20 401.26 501.28 401.68
  C 501.61 401.81 501.92 401.77 502.21 401.57
  C 502.97 401.03 503.46 400.13 503.69 398.88
  C 506.21 399.04 508.71 399.17 511.18 399.27
  C 513.65 399.37 516.72 398.31 519.69 399.31
  C 520.00 399.42 520.26 399.60 520.47 399.86
  C 520.90 400.40 521.49 400.70 522.22 400.75
  C 522.49 400.77 522.69 400.66 522.82 400.43
  C 523.18 399.77 523.74 399.38 524.51 399.25
  C 531.96 398.01 538.85 397.32 548.04 397.12
  C 554.51 396.97 560.82 395.81 566.97 393.62
  C 567.30 393.51 567.50 393.28 567.56 392.94
  L 568.07 390.21
  C 568.92 390.16 569.50 389.81 569.81 389.17
  Z
  M 522.2555 405.3045
  C 523.17 404.66 523.31 403.29 522.5627 402.2285
  C 521.82 401.17 520.48 400.83 519.5645 401.4755
  C 518.65 402.12 518.51 403.49 519.2573 404.5515
  C 520.00 405.61 521.34 405.95 522.2555 405.3045
  Z
  M 449.38 406.06
  C 450.37 406.27 450.84 405.86 450.78 404.85
  L 450.70 403.35
  C 450.68 402.98 450.39 402.69 450.02 402.66
  L 447.75 402.47
  C 447.21 402.42 446.97 402.67 447.02 403.21
  C 447.17 404.81 447.95 405.76 449.38 406.06
  Z"
/>
<path fill="#8fdfe8" d="
  M 503.69 398.88
  C 503.46 400.13 502.97 401.03 502.21 401.57
  C 501.92 401.77 501.61 401.81 501.28 401.68
  C 500.20 401.26 499.50 400.27 499.17 398.70
  C 499.56 396.67 500.66 395.91 502.47 396.42
  C 502.77 396.50 503.04 396.70 503.21 396.97
  C 503.60 397.58 503.76 398.21 503.69 398.88
  Z"
/>
<path fill="#32536c" d="
  M 461.73 414.34
  C 461.92 415.03 462.45 415.54 463.31 415.87
  C 463.63 416.00 463.95 415.99 464.26 415.85
  C 465.35 415.37 465.94 414.58 466.03 413.49
  C 473.10 414.34 480.21 414.69 487.37 414.52
  C 490.62 414.44 493.50 415.49 496.71 415.99
  C 496.59 418.18 497.46 419.24 499.33 419.19
  C 499.68 419.18 499.94 419.02 500.09 418.71
  C 500.55 417.76 500.68 416.57 500.47 415.14
  C 504.11 415.05 507.01 413.59 510.58 413.73
  C 514.45 413.87 518.08 413.02 521.87 414.16
  C 527.21 415.77 532.60 417.04 538.03 417.96
  C 528.99 423.83 524.95 433.91 513.86 436.04
  C 512.38 436.33 508.60 436.47 502.51 436.47
  C 434.17 436.51 365.83 436.45 297.50 436.29
  C 292.13 436.28 286.75 436.21 281.36 436.08
  C 280.88 436.07 280.73 435.85 280.91 435.40
  L 286.43 421.37
  C 286.86 420.30 287.91 419.61 289.06 419.66
  C 296.24 419.98 303.17 420.09 309.86 419.99
  C 337.23 419.59 364.62 419.70 392.00 419.80
  C 394.99 419.81 397.38 419.51 399.17 418.90
  C 401.39 418.14 402.99 416.89 403.97 415.14
  C 407.29 415.55 413.63 415.97 423.00 416.41
  C 428.69 416.68 433.41 416.34 437.16 415.40
  C 438.10 416.20 439.18 416.23 440.41 415.50
  C 440.71 415.32 440.88 415.06 440.92 414.71
  L 441.32 411.67
  L 445.29 411.15
  C 445.60 411.10 445.88 410.98 446.13 410.78
  C 447.00 410.05 447.98 409.96 449.05 410.49
  C 453.26 412.58 457.49 413.86 461.73 414.34
  Z"
/>
<path fill="#8fdfe8" d="
  M 441.32 411.67
  L 440.92 414.71
  C 440.88 415.06 440.71 415.32 440.41 415.50
  C 439.18 416.23 438.10 416.20 437.16 415.40
  L 436.74 412.27
  C 436.69 411.92 436.79 411.62 437.04 411.37
  C 438.26 410.18 439.69 410.28 441.32 411.67
  Z"
/>
<path fill="#8fdfe8" d="
  M 466.03 413.49
  C 465.94 414.58 465.35 415.37 464.26 415.85
  C 463.95 415.99 463.63 416.00 463.31 415.87
  C 462.45 415.54 461.92 415.03 461.73 414.34
  C 461.56 412.13 461.90 410.99 462.75 410.94
  C 465.12 410.79 466.22 411.64 466.03 413.49
  Z"
/>
<path fill="#8fdfe8" d="
  M 500.47 415.14
  C 500.68 416.57 500.55 417.76 500.09 418.71
  C 499.94 419.02 499.68 419.18 499.33 419.19
  C 497.46 419.24 496.59 418.18 496.71 415.99
  C 497.31 413.78 498.56 413.49 500.47 415.14
  Z"
/>
<rect fill="#744355" x="707.80" y="432.53" width="32.82" height="2.42" rx="1.19"/>
<path fill="#ffb571" d="
  M 312.61 492.90
  C 309.79 492.64 307.53 493.59 304.82 492.96
  C 298.10 491.40 294.02 490.54 288.66 495.05
  L 278.94 460.73
  C 278.17 458.01 280.19 455.31 283.01 455.27
  L 300.91 455.06
  C 301.27 455.05 301.60 455.25 301.77 455.57
  C 306.22 464.16 308.69 477.68 312.61 492.90
  Z"
/>
<path fill="#ffb571" d="
  M 371.63 487.44
  L 356.75 486.15
  C 356.46 486.12 356.21 486.03 355.98 485.87
  C 354.97 485.16 353.86 484.68 352.64 484.44
  C 352.33 484.38 352.07 484.24 351.85 484.01
  C 351.14 483.28 350.30 482.95 349.32 483.04
  C 348.98 483.07 348.68 482.97 348.43 482.74
  L 346.61 481.11
  C 346.33 480.86 346.03 480.84 345.72 481.05
  L 342.25 483.36
  L 349.57 456.36
  C 349.80 455.52 350.58 454.94 351.46 454.96
  L 361.77 455.28
  C 362.17 455.29 362.49 455.46 362.74 455.78
  C 363.45 456.71 363.99 457.84 364.34 459.18
  C 366.81 468.58 369.24 478.00 371.63 487.44
  Z"
/>
<rect fill="#ffa060" x="452.01" y="455.03" width="22.24" height="128.72" rx="4.82"/>
<path fill="#ffa060" d="
  M 408.42 549.29
  C 405.91 545.76 402.77 544.03 399.01 544.10
  C 394.81 544.18 391.40 544.81 387.31 544.23
  C 379.48 543.14 373.01 545.45 367.88 551.18
  C 365.09 540.83 362.18 530.21 359.16 519.32
  C 358.41 516.61 357.64 514.44 356.87 512.83
  C 356.72 512.51 356.25 512.55 356.15 512.89
  L 344.79 552.71
  L 335.97 546.10
  C 335.74 545.93 335.46 545.84 335.17 545.85
  C 330.07 546.08 325.09 546.95 320.23 548.44
  C 320.07 548.49 319.99 548.43 320.00 548.26
  C 320.00 548.18 320.00 548.09 320.01 547.99
  C 320.04 547.64 319.88 547.47 319.53 547.47
  C 315.31 547.44 307.52 547.78 304.75 552.04
  L 288.66 495.05
  C 294.02 490.54 298.10 491.40 304.82 492.96
  C 307.53 493.59 309.79 492.64 312.61 492.90
  L 325.39 541.80
  C 325.91 543.80 326.43 543.80 326.96 541.79
  L 342.25 483.36
  L 345.72 481.05
  C 346.03 480.84 346.33 480.86 346.61 481.11
  L 348.43 482.74
  C 348.68 482.97 348.98 483.07 349.32 483.04
  C 350.30 482.95 351.14 483.28 351.85 484.01
  C 352.07 484.24 352.33 484.38 352.64 484.44
  C 353.86 484.68 354.97 485.16 355.98 485.87
  C 356.21 486.03 356.46 486.12 356.75 486.15
  L 371.63 487.44
  L 386.39 542.26
  C 386.50 542.66 387.07 542.63 387.15 542.22
  C 387.48 540.39 387.88 538.57 388.33 536.77
  C 394.59 511.98 400.99 487.23 407.54 462.51
  C 408.32 459.58 409.01 457.37 409.60 455.87
  C 409.74 455.51 410.10 455.27 410.49 455.27
  C 416.65 455.23 422.73 455.23 428.73 455.27
  C 432.37 455.29 433.67 457.21 432.64 461.02
  C 424.73 490.23 416.65 519.66 408.42 549.29
  Z"
/>
<path fill="#ffb571" d="
  M 587.20 479.85
  L 580.35 481.93
  C 580.04 482.03 579.72 482.06 579.39 482.02
  C 573.66 481.29 569.04 483.05 565.53 487.30
  C 560.93 480.41 555.32 479.42 546.78 479.54
  C 539.21 479.64 531.63 479.73 524.04 479.80
  C 523.71 479.80 523.54 479.97 523.54 480.30
  L 523.75 510.91
  C 517.82 509.76 511.90 509.95 505.99 511.50
  C 504.28 511.95 502.70 512.12 501.25 511.99
  L 501.28 458.75
  C 501.28 456.89 502.81 455.39 504.67 455.42
  C 517.73 455.66 531.01 455.78 544.50 455.77
  C 563.05 455.76 578.67 463.15 587.20 479.85
  Z"
/>
<path fill="#ffb571" d="
  M 649.49 489.21
  L 649.28 494.39
  C 649.28 494.43 649.25 494.46 649.21 494.47
  C 649.17 494.47 649.13 494.45 649.12 494.41
  L 647.95 489.76
  C 647.88 489.47 647.70 489.28 647.43 489.19
  C 646.01 488.71 640.12 486.85 639.93 489.62
  C 639.90 489.97 639.72 490.11 639.37 490.06
  C 635.54 489.46 634.05 491.71 631.68 493.68
  C 631.39 493.91 630.97 493.86 630.76 493.56
  C 630.46 493.13 630.15 493.22 629.84 493.82
  C 629.74 494.00 629.47 493.96 629.43 493.76
  L 629.17 492.31
  C 629.15 492.20 629.06 492.13 628.95 492.14
  C 628.84 492.15 628.76 492.23 628.76 492.34
  C 628.75 493.45 628.73 494.54 628.72 495.63
  C 628.72 495.67 628.70 495.69 628.67 495.69
  C 628.66 495.69 628.64 495.69 628.62 495.69
  C 628.56 495.69 628.51 495.64 628.52 495.58
  C 628.61 494.71 628.52 493.93 628.26 493.24
  C 628.24 481.65 627.33 468.89 628.70 457.44
  C 628.83 456.41 629.70 455.64 630.73 455.65
  L 708.56 455.82
  C 708.80 455.82 709.00 456.01 709.00 456.25
  L 709.00 481.47
  C 709.00 481.78 708.84 481.94 708.53 481.95
  L 650.25 482.12
  C 649.81 482.13 649.59 482.35 649.58 482.78
  L 649.49 489.21
  Z"
/>
<path fill="#ffb571" d="
  M 732.58 481.92
  C 730.01 481.85 725.61 475.76 724.33 473.75
  C 724.14 473.46 724.22 473.32 724.56 473.31
  C 729.77 473.19 735.00 473.07 740.25 472.95
  C 744.39 472.86 749.94 478.32 752.35 481.34
  C 752.65 481.71 752.56 481.91 752.08 481.92
  C 745.53 482.10 739.03 482.10 732.58 481.92
  Z"
/>
<path fill="#061928" d="
  M 565.53 487.30
  C 569.69 494.74 568.37 502.61 561.95 507.88
  C 559.66 509.75 557.26 510.82 554.74 511.07
  C 547.31 511.82 536.98 511.77 523.75 510.91
  L 523.54 480.30
  C 523.54 479.97 523.71 479.80 524.04 479.80
  C 531.63 479.73 539.21 479.64 546.78 479.54
  C 555.32 479.42 560.93 480.41 565.53 487.30
  Z"
/>
<path fill="#fe8f5b" d="
  M 587.20 479.85
  C 596.41 500.81 588.06 523.60 566.67 532.34
  C 566.32 532.49 566.25 532.72 566.45 533.03
  C 567.12 534.06 567.84 535.01 568.61 535.90
  C 581.52 550.73 594.60 565.62 607.85 580.56
  C 608.62 581.42 608.05 582.78 606.90 582.84
  C 599.63 583.23 592.16 583.36 584.50 583.22
  C 583.21 583.20 582.06 582.62 581.03 581.47
  C 566.97 565.76 552.94 550.00 538.95 534.19
  C 538.70 533.90 538.38 533.75 537.99 533.75
  L 524.76 533.75
  C 523.71 533.75 523.19 534.27 523.20 535.32
  C 523.33 550.67 523.43 564.73 523.52 577.49
  C 523.53 579.54 523.04 581.29 522.07 582.75
  C 521.87 583.04 521.56 583.23 521.21 583.27
  C 516.06 583.84 510.93 583.92 505.84 583.53
  C 502.62 583.28 501.21 582.05 501.17 578.80
  C 500.90 556.55 500.92 534.28 501.25 511.99
  C 502.70 512.12 504.28 511.95 505.99 511.50
  C 511.90 509.95 517.82 509.76 523.75 510.91
  C 536.98 511.77 547.31 511.82 554.74 511.07
  C 557.26 510.82 559.66 509.75 561.95 507.88
  C 568.37 502.61 569.69 494.74 565.53 487.30
  C 569.04 483.05 573.66 481.29 579.39 482.02
  C 579.72 482.06 580.04 482.03 580.35 481.93
  L 587.20 479.85
  Z"
/>
<path fill="#fe8f5b" d="
  M 253.45 492.56
  C 250.46 531.14 256.16 572.78 272.64 608.18
  C 272.79 608.51 273.13 608.71 273.50 608.69
  C 274.00 608.66 274.67 608.65 275.50 608.65
  C 378.59 608.37 481.67 608.43 584.75 608.84
  C 620.90 608.98 650.16 619.44 673.93 647.25
  C 673.76 647.73 673.48 648.04 673.07 648.19
  C 672.76 648.30 672.38 648.26 671.94 648.05
  C 671.16 647.68 670.44 647.22 669.79 646.65
  C 669.44 646.36 669.06 646.29 668.64 646.46
  L 665.33 647.77
  C 664.83 647.97 664.61 648.55 664.86 649.02
  L 667.00 653.20
  C 667.12 653.43 667.14 653.67 667.05 653.92
  L 666.74 654.83
  C 649.90 633.94 626.15 621.65 599.25 621.71
  C 503.00 621.92 406.75 621.69 310.50 621.78
  C 292.92 621.80 274.15 622.18 255.94 621.92
  C 255.59 621.92 255.35 621.76 255.20 621.45
  C 236.15 580.21 227.80 531.72 232.43 486.77
  C 232.54 486.78 232.64 486.81 232.73 486.86
  C 232.86 486.93 232.99 486.95 233.14 486.92
  L 236.89 486.10
  C 237.12 486.05 237.18 485.92 237.07 485.71
  L 236.40 484.40
  C 236.21 484.04 236.31 483.79 236.70 483.66
  C 239.14 482.82 241.52 482.98 243.84 484.14
  C 244.17 484.31 244.52 484.34 244.87 484.25
  L 246.76 483.75
  C 247.17 483.64 247.53 483.72 247.85 483.99
  L 252.24 487.61
  C 252.45 487.78 252.59 488.03 252.64 488.29
  L 253.45 492.56
  Z"
/>
<path fill="#ffa060" d="
  M 649.49 489.21
  L 649.55 500.08
  C 649.55 500.52 649.77 500.74 650.21 500.74
  L 708.54 501.07
  C 708.85 501.08 709.00 501.23 709.00 501.54
  L 709.00 522.25
  C 709.00 522.58 708.83 522.75 708.50 522.76
  L 650.00 523.01
  C 649.67 523.01 649.50 523.17 649.50 523.50
  L 649.50 550.12
  C 649.50 550.54 649.71 550.75 650.14 550.74
  L 650.91 550.72
  C 643.45 554.18 637.59 552.65 630.33 553.69
  C 629.71 553.78 629.14 553.37 629.02 552.76
  L 628.27 548.99
  L 628.26 493.24
  C 628.52 493.93 628.61 494.71 628.52 495.58
  C 628.51 495.64 628.56 495.69 628.62 495.69
  C 628.64 495.69 628.66 495.69 628.67 495.69
  C 628.70 495.69 628.72 495.67 628.72 495.63
  C 628.73 494.54 628.75 493.45 628.76 492.34
  C 628.76 492.23 628.84 492.15 628.95 492.14
  C 629.06 492.13 629.15 492.20 629.17 492.31
  L 629.43 493.76
  C 629.47 493.96 629.74 494.00 629.84 493.82
  C 630.15 493.22 630.46 493.13 630.76 493.56
  C 630.97 493.86 631.39 493.91 631.68 493.68
  C 634.05 491.71 635.54 489.46 639.37 490.06
  C 639.72 490.11 639.90 489.97 639.93 489.62
  C 640.12 486.85 646.01 488.71 647.43 489.19
  C 647.70 489.28 647.88 489.47 647.95 489.76
  L 649.12 494.41
  C 649.13 494.45 649.17 494.47 649.21 494.47
  C 649.25 494.46 649.28 494.43 649.28 494.39
  L 649.49 489.21
  Z"
/>
<path fill="#ffa060" d="
  M 732.69 517.81
  C 729.52 516.34 728.29 512.54 730.93 510.03
  C 732.84 508.21 734.97 508.71 737.57 508.72
  C 752.53 508.75 768.34 508.74 785.01 508.69
  C 785.06 508.69 785.09 508.72 785.08 508.77
  L 784.96 517.77
  C 784.96 518.10 784.80 518.26 784.47 518.26
  C 771.26 518.24 758.06 518.25 744.87 518.28
  C 742.96 518.28 735.03 518.90 732.69 517.81
  Z"
/>
<rect fill="#744355" x="253.30" y="521.06" width="16.36" height="2.18" rx="1.06"/>
<path fill="#f87e51" d="
  M 408.42 549.29
  C 404.42 563.37 401.81 572.80 400.60 577.58
  C 399.59 581.57 397.57 584.05 393.13 583.97
  C 388.27 583.88 383.42 583.72 378.58 583.47
  C 377.75 583.43 377.03 582.86 376.80 582.06
  L 367.88 551.18
  C 373.01 545.45 379.48 543.14 387.31 544.23
  C 391.40 544.81 394.81 544.18 399.01 544.10
  C 402.77 544.03 405.91 545.76 408.42 549.29
  Z"
/>
<path fill="#f87e51" d="
  M 724.93 554.45
  C 724.55 554.43 724.33 554.02 724.52 553.70
  C 726.23 550.76 728.40 548.21 731.02 546.05
  C 731.20 545.91 731.41 545.83 731.64 545.82
  L 751.55 545.58
  C 751.88 545.58 752.05 545.97 751.82 546.21
  C 748.59 549.51 745.04 552.40 741.17 554.87
  C 740.94 555.01 740.68 555.08 740.42 555.07
  L 724.93 554.45
  Z"
/>
<path fill="#f87e51" d="
  M 758.03 630.53
  C 757.80 630.52 757.64 630.49 757.55 630.42
  C 757.47 630.36 757.49 630.25 757.61 630.08
  C 757.70 629.95 757.80 629.83 757.91 629.71
  C 757.96 629.65 757.96 629.57 757.91 629.51
  C 757.86 629.46 757.78 629.45 757.72 629.49
  L 757.27 629.82
  C 757.13 629.92 756.93 629.91 756.82 629.78
  C 755.80 628.64 754.40 627.84 753.77 626.46
  C 752.12 622.88 750.57 614.36 744.87 616.62
  C 744.46 616.78 744.11 616.26 744.43 615.95
  L 744.81 615.56
  C 745.04 615.33 745.00 615.23 744.67 615.27
  C 743.88 615.38 743.14 615.26 742.45 614.92
  C 752.03 592.80 758.71 569.80 762.49 545.93
  C 762.54 545.60 762.74 545.43 763.08 545.44
  L 782.21 545.65
  C 782.56 545.66 782.83 545.96 782.80 546.31
  C 782.63 548.22 782.29 550.80 781.78 554.05
  C 777.51 581.06 769.60 606.56 758.03 630.53
  Z"
/>
<path fill="#f87e51" d="
  M 344.79 552.71
  L 337.04 580.15
  C 336.44 582.28 334.49 583.75 332.27 583.75
  C 327.69 583.75 319.51 584.67 315.00 583.18
  C 314.68 583.07 314.40 582.86 314.21 582.59
  C 313.09 580.95 312.27 579.17 311.75 577.25
  C 309.47 568.81 307.14 560.41 304.75 552.04
  C 307.52 547.78 315.31 547.44 319.53 547.47
  C 319.88 547.47 320.04 547.64 320.01 547.99
  C 320.00 548.09 320.00 548.18 320.00 548.26
  C 319.99 548.43 320.07 548.49 320.23 548.44
  C 325.09 546.95 330.07 546.08 335.17 545.85
  C 335.46 545.84 335.74 545.93 335.97 546.10
  L 344.79 552.71
  Z"
/>
<path fill="#f87e51" d="
  M 628.27 548.99
  L 629.02 552.76
  C 629.14 553.37 629.71 553.78 630.33 553.69
  C 637.59 552.65 643.45 554.18 650.91 550.72
  L 708.51 550.76
  C 708.88 550.76 709.07 550.95 709.08 551.32
  L 709.32 574.69
  C 709.32 575.03 709.15 575.20 708.81 575.21
  L 630.71 575.35
  C 629.38 575.35 628.31 574.28 628.31 572.95
  L 628.27 548.99
  Z"
/>
<rect fill="#744355" x="-10.45" y="-1.26" transform="translate(268.29,554.36) rotate(0.1)" width="20.90" height="2.52" rx="1.22"/>
<rect fill="#744355" x="-15.59" y="-1.44" transform="translate(733.97,575.54) rotate(-0.4)" width="31.18" height="2.88" rx="1.41"/>
<rect fill="#744355" x="-14.72" y="-1.30" transform="translate(285.36,575.69) rotate(-0.5)" width="29.44" height="2.60" rx="1.27"/>
<rect fill="#744355" x="-9.06" y="-1.28" transform="translate(356.33,575.57) rotate(0.4)" width="18.12" height="2.56" rx="1.17"/>
<rect fill="#744355" x="410.55" y="574.49" width="30.46" height="2.44" rx="1.18"/>
<rect fill="#744355" x="-39.53" y="-1.22" transform="translate(686.05,602.22) rotate(-0.1)" width="79.06" height="2.44" rx="1.20"/>
<path fill="#c55746" d="
  M 742.45 614.92
  C 743.14 615.26 743.88 615.38 744.67 615.27
  C 745.00 615.23 745.04 615.33 744.81 615.56
  L 744.43 615.95
  C 744.11 616.26 744.46 616.78 744.87 616.62
  C 750.57 614.36 752.12 622.88 753.77 626.46
  C 754.40 627.84 755.80 628.64 756.82 629.78
  C 756.93 629.91 757.13 629.92 757.27 629.82
  L 757.72 629.49
  C 757.78 629.45 757.86 629.46 757.91 629.51
  C 757.96 629.57 757.96 629.65 757.91 629.71
  C 757.80 629.83 757.70 629.95 757.61 630.08
  C 757.49 630.25 757.47 630.36 757.55 630.42
  C 757.64 630.49 757.80 630.52 758.03 630.53
  C 740.78 665.32 717.22 695.04 687.35 719.71
  C 686.68 720.26 686.36 720.10 686.39 719.23
  C 686.74 709.05 686.63 698.08 684.05 688.44
  C 680.74 676.07 674.97 664.86 666.74 654.83
  L 667.05 653.92
  C 667.14 653.67 667.12 653.43 667.00 653.20
  L 664.86 649.02
  C 664.61 648.55 664.83 647.97 665.33 647.77
  L 668.64 646.46
  C 669.06 646.29 669.44 646.36 669.79 646.65
  C 670.44 647.22 671.16 647.68 671.94 648.05
  C 672.38 648.26 672.76 648.30 673.07 648.19
  C 673.48 648.04 673.76 647.73 673.93 647.25
  C 682.85 658.14 689.68 670.37 694.42 683.93
  C 694.52 684.23 694.91 684.33 695.14 684.11
  C 705.76 674.28 714.06 663.27 722.62 650.89
  C 730.42 639.62 737.03 627.63 742.45 614.92
  Z"
/>
<rect fill="#744355" x="-22.52" y="-1.25" transform="translate(709.25,634.25) rotate(-0.5)" width="45.04" height="2.50" rx="0.94"/>
<path fill="#f87e51" d="
  M 647.71 676.36
  C 646.66 677.07 645.69 677.80 644.82 678.53
  C 643.81 679.38 642.80 679.99 641.80 680.37
  C 640.55 680.85 639.29 681.32 638.03 681.77
  C 622.46 664.85 605.20 660.03 582.93 660.02
  C 486.04 659.99 389.15 659.99 292.26 660.01
  C 288.60 660.01 282.94 660.37 278.13 660.21
  C 277.69 660.20 277.29 659.97 277.05 659.60
  L 270.11 648.90
  C 269.80 648.41 269.93 648.17 270.51 648.16
  C 273.41 648.13 276.63 648.49 279.23 648.49
  C 380.66 648.50 482.08 648.57 583.50 648.69
  C 609.22 648.73 630.54 657.00 647.71 676.36
  Z"
/>
<path fill="#744355" d="
  M 702.32 657.57
  C 702.32 657.27 702.56 657.03 702.86 657.03
  L 706.56 657.02
  C 711.89 657.02 716.22 657.55 716.22 658.21
  L 716.22 658.77
  C 716.22 659.43 711.90 659.98 706.56 659.98
  L 702.86 659.99
  C 702.56 659.99 702.32 659.75 702.32 659.45
  L 702.32 657.57
  Z"
/>
<path fill="#c55746" d="
  M 647.71 676.36
  C 661.11 693.57 666.66 713.30 664.36 735.57
  C 664.33 735.90 664.17 736.16 663.88 736.34
  L 654.81 741.81
  C 654.48 742.02 654.31 741.92 654.30 741.53
  C 654.19 732.85 654.73 722.91 653.52 715.27
  C 651.53 702.80 646.37 691.63 638.03 681.77
  C 639.29 681.32 640.55 680.85 641.80 680.37
  C 642.80 679.99 643.81 679.38 644.82 678.53
  C 645.69 677.80 646.66 677.07 647.71 676.36
  Z"
/>
<path fill="#c55746" d="
  M 583.11 678.20
  C 582.77 677.95 582.98 677.40 583.40 677.44
  C 611.15 679.72 628.12 709.61 630.09 734.94
  C 630.45 739.58 630.43 746.36 630.03 755.29
  C 630.02 755.61 629.87 755.84 629.58 755.97
  L 619.80 760.57
  C 619.53 760.70 619.22 760.49 619.22 760.19
  C 619.38 749.05 619.81 736.28 617.75 726.36
  C 613.45 705.58 599.80 690.59 583.11 678.20
  Z"
/>
<path fill="#c55746" d="
  M 303.76 680.75
  L 303.05 681.17
  C 302.67 681.39 302.82 681.97 303.26 681.97
  L 322.99 682.13
  C 323.37 682.14 323.73 682.23 324.06 682.42
  L 327.51 684.37
  C 327.81 684.54 327.99 684.79 328.04 685.13
  C 328.10 685.55 328.26 685.80 328.53 685.87
  C 328.86 685.96 329.09 686.16 329.22 686.47
  L 331.76 692.46
  C 339.11 699.36 346.64 705.56 354.35 711.06
  C 354.62 711.25 354.93 711.35 355.26 711.35
  C 400.79 711.53 446.32 711.57 491.83 711.47
  C 495.67 711.46 501.65 711.86 506.58 711.78
  C 533.02 711.37 558.72 730.03 562.61 757.09
  C 563.36 762.28 563.64 768.85 563.43 776.81
  C 563.42 777.21 563.22 777.44 562.83 777.50
  L 553.51 778.98
  C 553.17 779.03 553.00 778.89 553.00 778.55
  C 552.95 768.22 553.04 757.63 548.75 748.13
  C 539.80 728.27 519.55 721.86 499.30 722.20
  C 454.12 722.95 414.83 721.65 372.25 722.79
  C 371.77 722.80 371.61 723.44 372.03 723.68
  L 398.15 738.32
  C 395.94 743.28 388.71 740.56 384.50 740.50
  C 384.18 740.50 384.01 740.66 384.00 740.97
  C 384.00 741.06 384.00 741.15 384.01 741.24
  C 384.04 741.59 383.88 741.77 383.54 741.80
  C 379.28 742.14 370.56 741.15 367.87 744.82
  C 340.44 728.37 312.09 706.28 292.05 681.11
  C 291.82 680.83 292.04 680.41 292.40 680.42
  L 303.76 680.75
  Z"
/>
<path fill="#f87e51" d="
  M 303.76 680.75
  C 374.17 680.74 444.58 680.75 515.01 680.76
  C 524.71 680.76 531.36 681.01 534.96 681.52
  C 558.96 684.91 581.24 701.01 591.26 723.43
  L 589.41 725.06
  C 589.12 725.31 588.91 725.26 588.76 724.91
  C 588.57 724.45 588.24 724.31 587.76 724.49
  C 587.22 724.70 586.93 724.82 586.88 724.87
  C 586.06 725.71 582.00 724.13 580.15 724.71
  C 570.53 707.39 556.45 696.89 537.90 693.22
  C 533.50 692.35 526.86 691.95 517.99 692.02
  C 453.49 692.57 392.79 691.34 331.76 692.46
  L 329.22 686.47
  C 329.09 686.16 328.86 685.96 328.53 685.87
  C 328.26 685.80 328.10 685.55 328.04 685.13
  C 327.99 684.79 327.81 684.54 327.51 684.37
  L 324.06 682.42
  C 323.73 682.23 323.37 682.14 322.99 682.13
  L 303.26 681.97
  C 302.82 681.97 302.67 681.39 303.05 681.17
  L 303.76 680.75
  Z"
/>
<path fill="#96494d" d="
  M 591.26 723.43
  C 597.57 737.21 598.28 753.01 597.12 767.90
  C 597.09 768.26 596.90 768.49 596.55 768.59
  L 587.74 771.01
  C 587.40 771.11 587.06 770.85 587.04 770.49
  C 586.49 754.13 587.38 740.02 580.15 724.71
  C 582.00 724.13 586.06 725.71 586.88 724.87
  C 586.93 724.82 587.22 724.70 587.76 724.49
  C 588.24 724.31 588.57 724.45 588.76 724.91
  C 588.91 725.26 589.12 725.31 589.41 725.06
  L 591.26 723.43
  Z"
/>
<path fill="#96494d" d="
  M 398.15 738.32
  C 401.90 740.29 406.79 743.46 411.24 743.48
  C 439.55 743.58 467.86 743.70 496.17 743.85
  C 506.40 743.91 519.20 745.10 525.48 753.47
  C 525.73 753.80 525.64 753.97 525.23 753.97
  C 505.39 753.98 485.57 754.41 465.76 755.27
  C 461.59 755.45 457.37 755.79 453.09 756.30
  C 446.22 754.84 438.86 754.65 431.00 755.73
  C 429.61 755.92 426.71 757.29 422.30 759.83
  C 422.02 760.00 421.80 760.22 421.65 760.51
  C 420.61 762.44 418.98 763.54 416.76 763.83
  C 416.45 763.87 416.24 764.03 416.13 764.32
  C 415.76 765.29 415.12 766.12 414.21 766.81
  C 398.16 760.96 382.71 753.63 367.87 744.82
  C 370.56 741.15 379.28 742.14 383.54 741.80
  C 383.88 741.77 384.04 741.59 384.01 741.24
  C 384.00 741.15 384.00 741.06 384.00 740.97
  C 384.01 740.66 384.18 740.50 384.50 740.50
  C 388.71 740.56 395.94 743.28 398.15 738.32
  Z"
/>
<path fill="#744355" d="
  M 453.09 756.30
  C 465.57 758.87 476.38 760.68 485.51 761.73
  C 500.27 763.41 515.38 762.42 531.08 763.30
  C 531.54 763.33 531.79 763.57 531.83 764.03
  L 533.21 781.39
  C 533.24 781.71 533.09 781.88 532.78 781.91
  C 492.15 785.62 452.62 780.58 414.21 766.81
  C 415.12 766.12 415.76 765.29 416.13 764.32
  C 416.24 764.03 416.45 763.87 416.76 763.83
  C 418.98 763.54 420.61 762.44 421.65 760.51
  C 421.80 760.22 422.02 760.00 422.30 759.83
  C 426.71 757.29 429.61 755.92 431.00 755.73
  C 438.86 754.65 446.22 754.84 453.09 756.30
  Z"
/>
</g>
<g>
<ellipse fill="#8fdfe8" cx="0.00" cy="0.00" transform="translate(520.91,403.39) rotate(54.9)" rx="2.34" ry="2.02"/>
<path fill="#8fdfe8" d="
  M 449.38 406.06
  C 447.95 405.76 447.17 404.81 447.02 403.21
  C 446.97 402.67 447.21 402.42 447.75 402.47
  L 450.02 402.66
  C 450.39 402.69 450.68 402.98 450.70 403.35
  L 450.78 404.85
  C 450.84 405.86 450.37 406.27 449.38 406.06
  Z"
/>
</g>
</svg>
